<svg id="e8wc6j81kr21" xmlns="http://www.w3.org/2000/svg" xmlns:xlink="http://www.w3.org/1999/xlink" viewBox="0 0 413 322" shape-rendering="geometricPrecision" text-rendering="geometricPrecision"><defs><rect id="e8wc6j81kr22" width="62.900000" height="76.600000" rx="0" ry="0"/></defs><circle id="e8wc6j81kr23" r="160" transform="matrix(1 0 0 1 206.50000000000000 161)" fill="none" stroke="rgb(178,194,214)" stroke-width="2" stroke-linecap="round" stroke-dasharray="10,10"/><circle id="e8wc6j81kr24" r="86.700000" transform="matrix(1 0 0 1 206.50000000000000 161)" fill="none" stroke="rgb(178,194,214)" stroke-width="2" stroke-linecap="round"/><circle id="e8wc6j81kr25" r="73.300000" transform="matrix(1 0 0 1 206.50000000000000 161)" fill="rgb(255,255,255)" stroke="none" stroke-width="1"/><g id="e8wc6j81kr26"><circle id="e8wc6j81kr27" r="48.900000" transform="matrix(1 0 0 1 364 161)" fill="rgb(36,198,187)" stroke="none" stroke-width="1"/><path id="e8wc6j81kr28" d="M349.200000,144.600000C349.100000,144.500000,349,144.400000,348.900000,144.300000L346.700000,142.200000C346.700000,142.200000,346.600000,142.100000,346.600000,142.100000C346.400000,141.900000,346.400000,141.900000,346.600000,141.800000L349.200000,139.200000L349.300000,139.100000C349.300000,139.100000,349.400000,139,349.500000,139.100000C349.500000,139.100000,349.600000,139.200000,349.600000,139.200000L352.200000,141.700000C352.200000,141.700000,352.300000,141.800000,352.300000,141.800000C352.300000,141.800000,352.300000,141.800000,352.300000,141.800000C352.300000,141.800000,352.300000,141.800000,352.300000,141.800000C352.300000,141.800000,352.300000,141.800000,352.300000,141.800000C352.300000,141.800000,352.300000,141.800000,352.300000,141.800000C352.200000,141.900000,352.200000,141.900000,352.100000,142L349.900000,144.200000C349.800000,144.300000,349.800000,144.300000,349.700000,144.400000C349.700000,144.500000,349.800000,144.500000,349.800000,144.500000C351.100000,144.500000,352.400000,144.500000,353.700000,144.500000L353.800000,144.500000C353.800000,144.500000,353.800000,144.500000,353.900000,144.500000C353.900000,144.500000,353.900000,144.500000,353.900000,144.500000C353.900000,144.500000,353.900000,144.500000,353.900000,144.500000C353.900000,144.500000,353.900000,144.500000,353.900000,144.500000C353.900000,144.300000,354,144.100000,354,144C354.600000,141.900000,355.800000,139.900000,357.400000,138.300000C359,136.700000,361,135.500000,363.100000,134.900000C363.900000,134.700000,364.800000,134.500000,365.600000,134.400000C366.400000,134.300000,367.200000,134.300000,368,134.400000C369.800000,134.500000,371.500000,135,373.100000,135.800000C374.700000,136.600000,376.100000,137.700000,377.200000,139C378.600000,140.600000,379.600000,142.600000,380.100000,144.700000C380.200000,145.300000,380.300000,145.900000,380.400000,146.500000C380.400000,146.900000,380.400000,147.400000,380.400000,147.800000C380.400000,148.600000,380.400000,149.300000,380.400000,150.100000C380.400000,150.200000,380.400000,150.300000,380.400000,150.300000C380.400000,150.300000,380.400000,150.300000,380.400000,150.300000C380.400000,150.300000,380.400000,150.300000,380.400000,150.300000C380.400000,150.300000,380.400000,150.300000,380.400000,150.300000C380.400000,150.300000,380.400000,150.300000,380.400000,150.300000L381,150.300000C383.900000,150.400000,386.800000,151.500000,389,153.300000C391.500000,155.300000,393.300000,158,394,161.100000C394.300000,162.400000,394.400000,163.700000,394.300000,165C394.100000,167.800000,393,170.500000,391.200000,172.600000C389.500000,174.700000,387.200000,176.300000,384.600000,177.100000C383.600000,177.400000,382.500000,177.600000,381.400000,177.700000C381,177.700000,380.700000,177.700000,380.300000,177.700000L376.400000,177.700000C376.300000,177.700000,376.200000,177.700000,376.200000,177.600000C376.200000,177.500000,376.200000,177.500000,376.200000,177.400000L376.200000,156.100000C376.200000,156.100000,376.200000,156,376.200000,156C376.200000,155.800000,376.200000,155.800000,376.400000,155.800000L380.100000,155.800000C380.100000,155.800000,380.200000,155.800000,380.200000,155.800000C380.200000,155.800000,380.200000,155.800000,380.300000,155.800000C380.300000,155.800000,380.300000,155.800000,380.300000,155.900000C380.300000,156,380.300000,156.100000,380.300000,156.200000C380.300000,161.100000,380.300000,165.900000,380.300000,170.800000L380.300000,173.400000C380.300000,173.400000,380.300000,173.500000,380.300000,173.500000C380.300000,173.700000,380.300000,173.700000,380.600000,173.700000C380.900000,173.700000,381.100000,173.700000,381.400000,173.600000C382.600000,173.500000,383.800000,173.100000,385,172.500000C386.300000,171.800000,387.400000,170.900000,388.300000,169.800000C389.200000,168.700000,389.800000,167.400000,390.100000,166C390.300000,165.200000,390.400000,164.300000,390.300000,163.500000C390.200000,161.400000,389.400000,159.400000,388,157.700000C386.600000,156,384.600000,154.800000,382.500000,154.400000C381.800000,154.300000,381.200000,154.200000,380.500000,154.200000L379,154.200000C376.300000,154.200000,373.500000,154.200000,370.800000,154.200000C370.400000,154.200000,370.400000,154.200000,370.400000,153.900000C370.400000,152.800000,370.400000,151.600000,370.400000,150.400000C370.400000,150.200000,370.400000,150.100000,370.700000,150.100000L375.900000,150.100000C376,150.100000,376.100000,150.100000,376.200000,150.100000C376.200000,150.100000,376.200000,150.100000,376.200000,150.100000C376.200000,150.100000,376.200000,150.100000,376.200000,150.100000C376.200000,150.100000,376.200000,150.100000,376.200000,150.100000C376.200000,150.100000,376.200000,150.100000,376.200000,150.100000C376.200000,150,376.200000,150,376.200000,149.900000C376.200000,149.100000,376.200000,148.300000,376.200000,147.500000C376.200000,147.200000,376.200000,146.800000,376.100000,146.500000C376,145.500000,375.700000,144.500000,375.300000,143.600000C374.800000,142.400000,374,141.400000,373,140.500000C372,139.600000,370.900000,139,369.600000,138.600000C368.500000,138.200000,367.200000,138.100000,366,138.200000C364.100000,138.300000,362.300000,139,360.800000,140.200000C359.500000,141.200000,358.500000,142.600000,357.900000,144.100000C357.900000,144.200000,357.800000,144.200000,357.800000,144.300000C357.800000,144.400000,357.800000,144.400000,357.900000,144.400000C358,144.400000,358.100000,144.400000,358.200000,144.400000C360.200000,144.400000,362.200000,144.400000,364.200000,144.400000C364.600000,144.400000,364.600000,144.300000,364.600000,144.800000L364.600000,148.200000C364.600000,148.500000,364.600000,148.500000,364.300000,148.500000L348,148.500000C346.900000,148.500000,345.700000,148.700000,344.700000,149.100000C343.200000,149.600000,341.800000,150.500000,340.800000,151.700000C339.800000,152.900000,339,154.300000,338.700000,155.900000C338.600000,156.500000,338.500000,157,338.500000,157.600000C338.500000,158.200000,338.500000,158.800000,338.500000,159.400000C338.500000,160.800000,338.900000,162.100000,339.500000,163.300000C340.100000,164.400000,340.900000,165.400000,341.900000,166.200000C342.900000,167,344.100000,167.600000,345.300000,167.900000C345.400000,167.900000,345.400000,167.900000,345.400000,167.900000C345.500000,167.900000,345.500000,168,345.500000,168L345.500000,168.100000C345.500000,169.300000,345.500000,170.500000,345.500000,171.700000C345.500000,171.900000,345.500000,172,345.200000,171.900000C342.500000,171.400000,340.100000,170.100000,338.200000,168.200000C336.300000,166.400000,335,164,334.500000,161.500000C334.300000,160.600000,334.200000,159.700000,334.200000,158.800000C334.200000,158.300000,334.200000,157.900000,334.200000,157.400000C334.200000,155.600000,334.600000,153.800000,335.300000,152.200000C336,150.600000,337.100000,149.100000,338.400000,147.800000C340.300000,146,342.600000,144.800000,345.200000,144.400000C346,144.200000,346.900000,144.200000,347.700000,144.200000L349.200000,144.600000Z" fill="rgb(255,255,255)" stroke="none" stroke-width="1"/><path id="e8wc6j81kr29" d="M358.500000,172.300000L353.600000,172.300000C353.200000,172.300000,353.300000,172.300000,353.300000,172L353.300000,168.600000C353.300000,168.200000,353.300000,168.300000,353.600000,168.300000L363.100000,168.300000C363.500000,168.300000,363.800000,168.200000,364.100000,168C364.300000,167.900000,364.500000,167.700000,364.700000,167.400000C364.800000,167.200000,364.900000,166.900000,364.900000,166.600000C364.900000,166.300000,364.900000,166,364.900000,165.800000C364.900000,165.700000,364.900000,165.700000,364.800000,165.700000C364.700000,165.700000,364.600000,165.700000,364.600000,165.700000C363.500000,165.700000,362.500000,165.700000,361.400000,165.700000C360.700000,165.700000,360,165.600000,359.300000,165.500000C357.900000,165.200000,356.600000,164.500000,355.600000,163.500000C354.600000,162.500000,353.800000,161.200000,353.500000,159.900000C353.300000,159.100000,353.200000,158.300000,353.300000,157.400000C353.400000,156.200000,353.800000,155,354.500000,153.900000C355.200000,152.800000,356.100000,152,357.200000,151.300000C358.100000,150.700000,359.200000,150.400000,360.200000,150.300000C362.100000,150.100000,364,150.500000,365.600000,151.600000C367.200000,152.700000,368.300000,154.200000,368.800000,156.100000C369,156.700000,369.100000,157.400000,369.100000,158C369.100000,160.900000,369.100000,163.700000,369.100000,166.600000C369.100000,167.800000,368.700000,168.900000,368.100000,169.800000C367.400000,170.800000,366.500000,171.500000,365.400000,171.900000C364.700000,172.200000,364,172.300000,363.200000,172.300000C361.600000,172.300000,360,172.300000,358.500000,172.300000L358.500000,172.300000ZM362.800000,161.700000L364.600000,161.700000C364.700000,161.700000,364.800000,161.700000,364.800000,161.700000C364.800000,161.700000,364.800000,161.700000,364.800000,161.700000C364.800000,161.700000,364.800000,161.700000,364.800000,161.700000C364.800000,161.700000,364.800000,161.700000,364.800000,161.700000C364.800000,161.700000,364.800000,161.700000,364.800000,161.700000C364.800000,161.600000,364.800000,161.600000,364.800000,161.500000C364.800000,160.400000,364.800000,159.300000,364.800000,158.100000C364.800000,157.900000,364.800000,157.600000,364.700000,157.400000C364.600000,156.900000,364.400000,156.400000,364.200000,156C363.900000,155.600000,363.600000,155.200000,363.100000,154.900000C362.700000,154.600000,362.200000,154.400000,361.700000,154.300000C361.200000,154.200000,360.700000,154.200000,360.200000,154.300000C359.400000,154.500000,358.600000,154.900000,358.100000,155.600000C357.600000,156.200000,357.300000,157.100000,357.300000,157.900000C357.300000,158.400000,357.400000,158.900000,357.600000,159.300000C357.800000,159.800000,358.100000,160.200000,358.400000,160.500000C358.700000,160.900000,359.100000,161.100000,359.600000,161.300000C360.100000,161.500000,360.500000,161.600000,361,161.600000C361.600000,161.700000,362.200000,161.700000,362.800000,161.700000L362.800000,161.700000Z" fill="rgb(255,255,255)" stroke="none" stroke-width="1"/><path id="e8wc6j81kr210" d="M374.800000,161.800000C374.800000,163.300000,374.800000,164.900000,374.800000,166.400000C374.800000,167.900000,374.500000,169.300000,374,170.600000C373.300000,172.300000,372.200000,173.800000,370.800000,174.900000C369.400000,176.100000,367.800000,176.900000,366,177.400000C365.100000,177.600000,364.200000,177.700000,363.200000,177.700000C362.400000,177.700000,361.700000,177.700000,360.900000,177.700000C360.800000,177.700000,360.800000,177.700000,360.700000,177.700000C360.600000,177.700000,360.600000,177.700000,360.600000,177.600000C360.600000,177.500000,360.600000,177.500000,360.600000,177.400000L360.600000,174C360.600000,173.700000,360.600000,173.700000,360.900000,173.700000C361.700000,173.700000,362.500000,173.700000,363.300000,173.700000C364.900000,173.700000,366.400000,173.200000,367.700000,172.300000C369.200000,171.200000,370.300000,169.500000,370.600000,167.700000C370.700000,167.200000,370.700000,166.800000,370.700000,166.300000C370.700000,163,370.700000,159.700000,370.700000,156.500000C370.700000,156.400000,370.700000,156.300000,370.700000,156.200000C370.700000,156.100000,370.700000,156.100000,370.800000,156.100000C370.900000,156.100000,370.900000,156.100000,371,156.100000L374.500000,156.100000C374.600000,156.100000,374.600000,156.100000,374.700000,156.100000C374.800000,156.100000,374.800000,156.100000,374.800000,156.200000C374.800000,156.300000,374.800000,156.400000,374.800000,156.400000L374.800000,161.800000Z" fill="rgb(255,255,255)" stroke="none" stroke-width="1"/><path id="e8wc6j81kr211" d="M351.600000,161.400000C351.600000,164.900000,351.600000,168.400000,351.600000,172C351.600000,172.400000,351.700000,172.400000,351.300000,172.400000L347.900000,172.400000C347.800000,172.400000,347.800000,172.400000,347.700000,172.400000C347.600000,172.400000,347.600000,172.400000,347.600000,172.300000C347.600000,172.200000,347.600000,172.100000,347.600000,172C347.600000,165,347.600000,157.900000,347.600000,150.900000C347.600000,150.500000,347.600000,150.500000,348,150.500000C349.100000,150.500000,350.200000,150.500000,351.300000,150.500000C351.800000,150.500000,351.700000,150.400000,351.700000,150.900000C351.700000,152.400000,351.700000,154,351.700000,155.500000L351.600000,161.400000Z" fill="rgb(255,255,255)" stroke="none" stroke-width="1"/><path id="e8wc6j81kr212" d="M367.100000,188.200000C367.100000,188.100000,367.100000,188.100000,367.100000,188L367.100000,183C367.100000,183,367.100000,182.900000,367.100000,182.900000C367.100000,182.900000,367.100000,182.800000,367.100000,182.800000C367.100000,182.800000,367.100000,182.700000,367.200000,182.700000C367.200000,182.700000,367.300000,182.700000,367.300000,182.700000C367.500000,182.600000,367.800000,182.500000,368,182.400000C368.100000,182.400000,368.100000,182.400000,368.100000,182.500000C368.100000,182.600000,368.100000,182.700000,368.100000,182.700000L368.100000,184.900000C368.100000,185,368.100000,185.100000,368.100000,185.100000C368.100000,185.200000,368.100000,185.200000,368.200000,185.200000C368.300000,185.200000,368.400000,185.200000,368.400000,185.200000L376.900000,185.200000C377.300000,185.200000,377.300000,185.200000,377.300000,184.800000C377.300000,184.400000,377.300000,184,377.300000,183.700000C377.300000,183.600000,377.300000,183.600000,377.300000,183.500000C377.300000,183.500000,377.300000,183.500000,377.300000,183.400000C377.300000,183.400000,377.300000,183.400000,377.400000,183.300000C377.700000,183.200000,378,183,378.300000,182.900000C378.300000,182.900000,378.300000,182.900000,378.300000,182.900000C378.300000,182.900000,378.300000,182.900000,378.300000,182.900000C378.300000,182.900000,378.300000,182.900000,378.300000,182.900000C378.300000,182.900000,378.300000,182.900000,378.300000,182.900000C378.300000,183,378.300000,183,378.300000,183.100000L378.300000,185.800000C378.300000,186.100000,378.300000,186.100000,378,186.100000L368.500000,186.100000C368.400000,186.100000,368.300000,186.100000,368.300000,186.100000C368.100000,186.100000,368.100000,186.100000,368.100000,186.300000C368.100000,186.600000,368.100000,187,368.100000,187.300000C368.100000,187.400000,368.100000,187.400000,368.100000,187.500000C368.100000,187.600000,368.100000,187.600000,368.100000,187.600000C368.100000,187.600000,368,187.700000,368,187.700000C367.600000,187.900000,367.400000,188.100000,367.100000,188.200000C367.100000,188.200000,367.100000,188.200000,367.100000,188.200000Z" fill="rgb(255,255,255)" stroke="none" stroke-width="1"/><path id="e8wc6j81kr213" d="M359.900000,188.200000L359.900000,187.800000C359.900000,187.500000,359.900000,187.200000,359.900000,186.900000C359.900000,186.800000,359.900000,186.700000,359.700000,186.700000C359.400000,186.700000,359,186.700000,358.700000,186.700000C358.400000,186.700000,358.100000,186.700000,357.900000,186.600000C357.500000,186.500000,357.200000,186.200000,356.900000,185.900000C356.600000,185.600000,356.500000,185.200000,356.400000,184.800000C356.300000,184.400000,356.400000,184,356.500000,183.600000C356.600000,183.200000,357,182.900000,357.300000,182.700000C357.700000,182.400000,358.300000,182.300000,358.800000,182.300000C359.200000,182.300000,359.600000,182.500000,360,182.800000C360.300000,183.100000,360.600000,183.400000,360.700000,183.800000C360.800000,184,360.800000,184.300000,360.800000,184.500000C360.800000,185.500000,360.800000,186.600000,360.800000,187.600000C360.800000,187.600000,360.800000,187.700000,360.800000,187.700000C360.800000,187.700000,360.800000,187.700000,360.800000,187.800000C360.800000,187.800000,360.800000,187.800000,360.700000,187.800000C360.500000,187.900000,360.300000,188.100000,359.900000,188.200000C360,188.200000,360,188.200000,359.900000,188.200000ZM359.900000,185L359.900000,184.500000C359.900000,184.300000,359.900000,184.100000,359.800000,184C359.700000,183.800000,359.600000,183.700000,359.400000,183.600000C359.200000,183.500000,359.100000,183.400000,358.900000,183.400000C358.700000,183.400000,358.500000,183.400000,358.300000,183.400000C358.100000,183.500000,357.900000,183.500000,357.800000,183.700000C357.700000,183.800000,357.500000,184,357.500000,184.200000C357.400000,184.400000,357.400000,184.600000,357.400000,184.800000C357.400000,185.100000,357.600000,185.400000,357.800000,185.600000C358,185.800000,358.300000,185.900000,358.700000,185.900000L359.100000,185.900000C359.300000,185.900000,359.500000,185.900000,359.700000,185.900000C359.900000,185.900000,359.900000,185.900000,359.900000,185.700000C359.900000,185.300000,359.900000,185.100000,359.900000,185Z" fill="rgb(255,255,255)" stroke="none" stroke-width="1"/><path id="e8wc6j81kr214" d="M348.500000,183L348.500000,183.300000C348.500000,184,348.500000,184.700000,348.500000,185.500000C348.500000,185.900000,348.600000,186.200000,348.800000,186.600000C349,186.800000,349.200000,187,349.400000,187.100000C349.600000,187.200000,349.900000,187.300000,350.200000,187.300000C350.400000,187.300000,350.700000,187.300000,350.900000,187.200000C351.100000,187.100000,351.300000,187,351.500000,186.800000C351.700000,186.700000,351.800000,186.500000,351.900000,186.300000C352,186.100000,352,185.900000,352,185.700000C352,185.100000,352,184.500000,352,183.800000C352,183.500000,352,183.500000,352.300000,183.400000C352.500000,183.300000,352.700000,183.200000,352.900000,183.100000C352.900000,183.100000,353,183.100000,353,183.100000C353.100000,183.100000,353,183.200000,353,183.200000C353,184,353,184.800000,353,185.600000C353,186.100000,352.800000,186.700000,352.500000,187.100000C352.100000,187.700000,351.400000,188.100000,350.700000,188.200000C350.200000,188.300000,349.700000,188.200000,349.200000,188C348.700000,187.800000,348.300000,187.500000,348,187.100000C347.700000,186.700000,347.500000,186.100000,347.500000,185.600000C347.500000,185,347.500000,184.300000,347.500000,183.700000C347.500000,183.700000,347.500000,183.600000,347.500000,183.600000C347.500000,183.600000,347.500000,183.500000,347.500000,183.500000C347.500000,183.500000,347.600000,183.400000,347.600000,183.400000L348.200000,183.200000L348.500000,183Z" fill="rgb(255,255,255)" stroke="none" stroke-width="1"/><path id="e8wc6j81kr215" d="M363.100000,182.300000C363.100000,182.400000,363.100000,182.400000,363.100000,182.500000L363.100000,187.500000C363.100000,187.500000,363.100000,187.600000,363.100000,187.600000C363.100000,187.700000,363.100000,187.700000,363.100000,187.800000C363.100000,187.800000,363,187.900000,363,187.900000C362.800000,188,362.600000,188.100000,362.300000,188.200000C362.200000,188.200000,362.200000,188.300000,362.100000,188.200000C362.100000,188.100000,362.100000,188.100000,362.100000,188C362.100000,186.300000,362.100000,184.700000,362.100000,183C362.100000,182.900000,362.100000,182.900000,362.100000,182.800000C362.100000,182.800000,362.100000,182.800000,362.100000,182.700000C362.100000,182.700000,362.100000,182.700000,362.100000,182.700000C362.500000,182.600000,362.800000,182.400000,363.100000,182.300000C363.100000,182.300000,363.100000,182.300000,363.100000,182.300000Z" fill="rgb(255,255,255)" stroke="none" stroke-width="1"/><path id="e8wc6j81kr216" d="M355.200000,183.500000L355.200000,185.800000C355.200000,185.900000,355.200000,186,355.200000,186C355.200000,186,355.200000,186,355.200000,186C355.200000,186,355.200000,186,355.200000,186C355.200000,186,355.200000,186,355.200000,186C355.200000,186,355.200000,186,355.200000,186C354.900000,186,354.600000,186,354.400000,186C354.400000,186,354.400000,186,354.400000,186C354.400000,186,354.400000,186,354.400000,186C354.400000,186,354.400000,186,354.400000,186C354.400000,186,354.400000,186,354.400000,186C354.400000,185.900000,354.400000,185.900000,354.400000,185.800000L354.400000,181.500000C354.400000,181.500000,354.400000,181.400000,354.400000,181.400000C354.400000,181.400000,354.400000,181.300000,354.400000,181.300000C354.400000,181.300000,354.400000,181.300000,354.500000,181.200000L355.300000,180.800000C355.300000,180.800000,355.300000,180.800000,355.300000,180.800000C355.300000,180.800000,355.300000,180.800000,355.300000,180.800000C355.300000,180.800000,355.300000,180.800000,355.300000,180.800000C355.300000,180.800000,355.300000,180.800000,355.300000,180.800000C355.300000,180.900000,355.300000,181,355.300000,181L355.200000,183.500000Z" fill="rgb(255,255,255)" stroke="none" stroke-width="1"/><path id="e8wc6j81kr217" d="M365.300000,183.700000C365.300000,184.400000,365.300000,185.200000,365.300000,185.900000C365.300000,186.100000,365.300000,186.200000,365,186.200000C364.800000,186.200000,364.600000,186.200000,364.400000,186.200000C364.300000,186.200000,364.300000,186.200000,364.300000,186.100000C364.300000,186,364.300000,186,364.300000,185.900000C364.300000,184.600000,364.300000,183.300000,364.300000,182.100000C364.300000,181.800000,364.300000,181.800000,364.600000,181.700000C364.800000,181.600000,365,181.500000,365.200000,181.400000C365.300000,181.400000,365.300000,181.400000,365.300000,181.500000C365.300000,181.600000,365.300000,181.700000,365.300000,181.700000L365.300000,183.700000Z" fill="rgb(255,255,255)" stroke="none" stroke-width="1"/><path id="e8wc6j81kr218" d="M380.500000,181.300000C380.500000,181.400000,380.500000,181.500000,380.500000,181.600000C380.500000,183,380.500000,184.500000,380.500000,185.900000C380.500000,186.200000,380.500000,186.200000,380.200000,186.200000C380,186.200000,379.900000,186.200000,379.700000,186.200000C379.600000,186.200000,379.600000,186.200000,379.600000,186.100000C379.600000,186,379.600000,186,379.600000,185.900000L379.600000,182C379.600000,181.900000,379.600000,181.900000,379.600000,181.800000C379.600000,181.800000,379.600000,181.700000,379.600000,181.700000C379.600000,181.700000,379.600000,181.700000,379.700000,181.600000C380,181.500000,380.200000,181.400000,380.500000,181.200000C380.400000,181.300000,380.500000,181.300000,380.500000,181.300000L380.500000,181.300000Z" fill="rgb(255,255,255)" stroke="none" stroke-width="1"/><path id="e8wc6j81kr219" d="M364.500000,179.800000C364.900000,179.800000,365.300000,179.800000,365.700000,179.800000C366.300000,179.800000,366.900000,180,367.300000,180.400000C367.300000,180.400000,367.400000,180.500000,367.400000,180.500000C367.400000,180.500000,367.400000,180.500000,367.400000,180.600000C367.400000,180.700000,367.400000,180.600000,367.400000,180.700000C367.400000,180.700000,367.400000,180.700000,367.400000,180.700000C367.200000,180.900000,367,181,366.800000,181.200000C366.800000,181.200000,366.700000,181.200000,366.700000,181.200000C366.700000,181.200000,366.600000,181.200000,366.600000,181.200000C366.500000,181.100000,366.500000,181.100000,366.400000,181.100000C366.200000,181,365.900000,180.900000,365.700000,180.900000C364.900000,180.900000,364.200000,180.900000,363.500000,180.900000C363.200000,180.900000,363.200000,180.900000,363.200000,180.600000C363.200000,180.400000,363.200000,180.200000,363.200000,180C363.200000,179.900000,363.200000,179.900000,363.300000,179.900000C363.400000,179.900000,363.400000,179.900000,363.500000,179.900000L364.500000,179.800000L364.500000,179.800000Z" fill="rgb(255,255,255)" stroke="none" stroke-width="1"/><path id="e8wc6j81kr220" d="M357.600000,177C357.600000,176.800000,357.600000,176.600000,357.600000,176.400000C357.600000,176.300000,357.600000,176.300000,357.700000,176.300000C357.800000,176.300000,358,176.300000,358.100000,176.300000C358.100000,176.300000,358.200000,176.300000,358.200000,176.300000C358.200000,176.300000,358.300000,176.300000,358.300000,176.300000C358.300000,176.300000,358.400000,176.300000,358.400000,176.300000C358.400000,176.300000,358.500000,176.300000,358.500000,176.300000C358.500000,176.300000,358.600000,176.300000,358.600000,176.300000C358.600000,176.300000,358.700000,176.300000,358.700000,176.300000C358.700000,176.300000,358.800000,176.300000,358.800000,176.400000C358.800000,176.400000,358.900000,176.500000,358.900000,176.500000C358.900000,176.500000,358.900000,176.600000,358.900000,176.600000C358.900000,177,358.900000,177.300000,358.900000,177.700000C358.900000,177.800000,358.900000,177.800000,358.800000,177.800000C358.700000,177.800000,358.600000,177.800000,358.600000,177.600000C358.600000,177.500000,358.600000,177.500000,358.600000,177.400000C358.600000,177.200000,358.600000,176.900000,358.600000,176.700000C358.600000,176.600000,358.500000,176.500000,358.500000,176.500000C358.500000,176.500000,358.500000,176.500000,358.400000,176.500000C358.400000,176.500000,358.400000,176.500000,358.300000,176.500000C358.300000,176.500000,358.300000,176.500000,358.300000,176.600000C358.300000,176.600000,358.300000,176.600000,358.300000,176.700000C358.300000,176.900000,358.300000,177.100000,358.300000,177.300000L358.300000,177.600000C358.300000,177.600000,358.300000,177.700000,358.300000,177.700000C358.300000,177.700000,358.200000,177.700000,358.200000,177.700000C358.200000,177.700000,358.100000,177.700000,358.100000,177.700000C358.100000,177.700000,358.100000,177.600000,358.100000,177.600000C358.100000,177.400000,358.100000,177.100000,358.100000,176.900000C358.100000,176.800000,358.100000,176.700000,358.100000,176.700000C358.100000,176.700000,358.100000,176.600000,358.100000,176.600000C358.100000,176.600000,358.100000,176.600000,358,176.600000C358,176.600000,357.900000,176.600000,357.900000,176.600000C357.900000,176.600000,357.800000,176.600000,357.800000,176.700000C357.800000,176.800000,357.800000,176.800000,357.800000,176.900000C357.800000,177.200000,357.800000,177.400000,357.800000,177.700000C357.800000,177.800000,357.800000,177.800000,357.700000,177.800000C357.600000,177.800000,357.500000,177.800000,357.500000,177.700000C357.600000,177.400000,357.600000,177.200000,357.600000,177L357.600000,177Z" fill="rgb(255,255,255)" stroke="none" stroke-width="1"/><path id="e8wc6j81kr221" d="M353.400000,176.800000C353.400000,177.100000,353.400000,177.400000,353.400000,177.700000C353.400000,177.800000,353.400000,177.800000,353.300000,177.800000C353.200000,177.800000,353.100000,177.800000,353,177.800000C352.900000,177.800000,352.900000,177.800000,352.800000,177.800000C352.700000,177.800000,352.700000,177.800000,352.700000,177.700000C352.700000,177.700000,352.600000,177.600000,352.600000,177.600000C352.600000,177.600000,352.600000,177.500000,352.600000,177.400000C352.600000,177.100000,352.600000,176.800000,352.600000,176.600000C352.600000,176.300000,352.800000,176.200000,353,176.300000C353,176.300000,353.100000,176.300000,353.100000,176.300000C353.200000,176.300000,353.200000,176.300000,353.200000,176.200000C353.200000,176.100000,353.200000,176,353.200000,175.900000C353.200000,175.800000,353.200000,175.800000,353.300000,175.800000C353.400000,175.800000,353.400000,175.800000,353.500000,175.900000C353.500000,176.100000,353.500000,176.300000,353.500000,176.500000L353.400000,176.800000L353.400000,176.800000ZM352.800000,177C352.800000,177.100000,352.800000,177.200000,352.800000,177.400000C352.800000,177.400000,352.800000,177.500000,352.800000,177.500000C352.800000,177.500000,352.800000,177.500000,352.900000,177.500000C353,177.500000,353.100000,177.500000,353.100000,177.400000C353.100000,177.200000,353.100000,176.900000,353.100000,176.700000C353.100000,176.700000,353.100000,176.600000,353,176.600000C353,176.600000,352.900000,176.600000,352.900000,176.600000C352.900000,176.600000,352.800000,176.600000,352.800000,176.600000C352.800000,176.600000,352.800000,176.700000,352.800000,176.700000C352.800000,176.800000,352.800000,176.900000,352.800000,177Z" fill="rgb(255,255,255)" stroke="none" stroke-width="1"/><path id="e8wc6j81kr222" d="M374.800000,187.500000C374.600000,187.700000,374.400000,187.900000,374.100000,188.200000C374.100000,188.200000,374.100000,188.200000,374.100000,188.200000C374.100000,188.200000,374.100000,188.200000,374.100000,188.200000C374.100000,188.200000,374.100000,188.200000,374.100000,188.200000C374.100000,188.200000,374.100000,188.200000,374.100000,188.200000C373.900000,188,373.700000,187.800000,373.400000,187.600000C373.400000,187.600000,373.400000,187.600000,373.400000,187.600000C373.400000,187.600000,373.400000,187.600000,373.400000,187.600000C373.400000,187.600000,373.400000,187.600000,373.400000,187.600000C373.400000,187.600000,373.400000,187.600000,373.400000,187.600000C373.600000,187.400000,373.800000,187.200000,374,187C374,187,374,187,374,187C374,187,374,187,374,187C374,187,374,187,374,187C374,187,374,187,374,187C374.300000,187.100000,374.600000,187.300000,374.800000,187.500000Z" fill="rgb(255,255,255)" stroke="none" stroke-width="1"/><path id="e8wc6j81kr223" d="M348.400000,174.500000L348.400000,174.800000C348.400000,174.900000,348.400000,175,348.500000,175C348.600000,175,348.600000,175.100000,348.500000,175.100000C348.500000,175.100000,348.500000,175.100000,348.500000,175.100000C348.500000,175.100000,348.500000,175.100000,348.400000,175.100000C348.400000,175.100000,348.300000,175.100000,348.300000,175.100000C348.300000,175.100000,348.200000,175.100000,348.200000,175C348.200000,175,348.200000,175,348.100000,175C348.100000,175,348,175,348,175C347.900000,175.100000,347.800000,175.100000,347.700000,175C347.600000,175,347.600000,175,347.500000,174.900000C347.500000,174.900000,347.400000,174.800000,347.400000,174.700000C347.400000,174.300000,347.400000,174.200000,347.800000,174.100000C347.800000,174.100000,347.900000,174.100000,347.900000,174.100000C347.900000,174.100000,348,174.100000,348,174.100000C348,174.100000,348,174.100000,348,174C348,173.900000,348,173.900000,348,173.900000C348,173.900000,348,173.800000,348,173.800000C348,173.800000,348,173.800000,347.900000,173.700000C347.900000,173.700000,347.800000,173.700000,347.800000,173.700000C347.800000,173.700000,347.700000,173.700000,347.700000,173.700000C347.700000,173.700000,347.700000,173.700000,347.600000,173.700000C347.600000,173.700000,347.600000,173.800000,347.600000,173.800000C347.600000,173.900000,347.500000,173.900000,347.400000,173.900000C347.400000,173.900000,347.400000,173.900000,347.300000,173.900000C347.300000,173.900000,347.300000,173.900000,347.300000,173.900000C347.300000,173.800000,347.300000,173.800000,347.300000,173.700000C347.300000,173.600000,347.300000,173.600000,347.400000,173.500000C347.400000,173.500000,347.500000,173.400000,347.500000,173.400000C347.600000,173.400000,347.600000,173.400000,347.700000,173.400000C347.700000,173.400000,347.800000,173.400000,347.800000,173.400000C347.800000,173.400000,347.900000,173.400000,347.900000,173.400000C347.900000,173.400000,348,173.400000,348,173.500000C348,173.500000,348.100000,173.600000,348.100000,173.600000C348.100000,173.600000,348.100000,173.700000,348.100000,173.700000C348.400000,174.200000,348.400000,174.400000,348.400000,174.500000L348.400000,174.500000ZM348.100000,174.700000C348.100000,174.600000,348.100000,174.500000,348.100000,174.500000C348,174.500000,348,174.500000,347.900000,174.500000C347.900000,174.500000,347.800000,174.600000,347.800000,174.600000C347.800000,174.700000,347.800000,174.700000,347.800000,174.800000C347.800000,174.800000,347.800000,174.900000,347.800000,174.900000C347.800000,174.900000,347.900000,174.900000,347.900000,174.900000C347.900000,174.900000,348,174.900000,348,174.900000C348,174.900000,348,174.800000,348.100000,174.800000C348.100000,174.800000,348.100000,174.800000,348.100000,174.700000L348.100000,174.700000Z" fill="rgb(255,255,255)" stroke="none" stroke-width="1"/><path id="e8wc6j81kr224" d="M350.200000,183.500000C350.400000,183.700000,350.700000,184,350.900000,184.200000C351,184.300000,351,184.300000,350.900000,184.400000C350.700000,184.600000,350.500000,184.800000,350.300000,185C350.200000,185,350.200000,185,350.200000,184.900000C350,184.700000,349.800000,184.500000,349.600000,184.400000C349.500000,184.300000,349.500000,184.300000,349.600000,184.200000C349.800000,183.900000,350,183.700000,350.200000,183.500000Z" fill="rgb(255,255,255)" stroke="none" stroke-width="1"/><path id="e8wc6j81kr225" d="M351.900000,174.800000C351.900000,174.800000,351.900000,174.700000,351.900000,174.700000C351.900000,174.600000,351.900000,174.600000,352,174.500000C352,174.500000,352.100000,174.400000,352.100000,174.400000C352.200000,174.400000,352.300000,174.300000,352.400000,174.300000C352.500000,174.300000,352.500000,174.200000,352.500000,174.100000C352.500000,174.100000,352.500000,174,352.500000,174C352.500000,174,352.400000,174,352.400000,174C352.400000,174,352.300000,174,352.300000,174C352.300000,174,352.200000,174,352.200000,174.100000C352.200000,174.100000,352.200000,174.200000,352.200000,174.200000C352.200000,174.300000,352.100000,174.300000,352,174.300000C352,174.300000,352,174.300000,352,174.300000C352,174.300000,352,174.300000,352,174.300000C352,174.200000,352,174.200000,352,174.100000C352,174,352,174,352.100000,173.900000C352.100000,173.900000,352.200000,173.800000,352.200000,173.800000C352.300000,173.800000,352.500000,173.800000,352.600000,173.800000C352.700000,173.800000,352.700000,173.800000,352.700000,173.900000C352.700000,173.900000,352.800000,174,352.800000,174C352.800000,174.100000,352.800000,174.100000,352.800000,174.200000C352.800000,174.400000,352.800000,174.600000,352.800000,174.900000C352.800000,175,352.800000,175,352.900000,175.100000C352.900000,175.100000,353,175.200000,352.900000,175.200000C352.900000,175.200000,352.900000,175.200000,352.900000,175.300000C352.900000,175.300000,352.900000,175.300000,352.800000,175.300000C352.800000,175.300000,352.700000,175.300000,352.700000,175.300000C352.700000,175.300000,352.600000,175.300000,352.600000,175.300000C352.600000,175.300000,352.600000,175.300000,352.500000,175.300000C352.500000,175.300000,352.400000,175.300000,352.400000,175.300000C352.300000,175.300000,352.200000,175.400000,352.100000,175.400000C352.100000,175.400000,352,175.400000,352,175.400000C352,175.400000,351.900000,175.400000,351.900000,175.300000C351.900000,175.300000,351.800000,175.200000,351.800000,175.200000C351.800000,175.200000,351.800000,175.100000,351.800000,175.100000C351.900000,174.900000,351.900000,174.900000,351.900000,174.800000L351.900000,174.800000ZM352.500000,174.500000C352.300000,174.500000,352.200000,174.600000,352.200000,174.800000C352.200000,174.800000,352.200000,174.900000,352.200000,174.900000C352.200000,174.900000,352.300000,174.900000,352.300000,175C352.300000,175,352.400000,175,352.400000,175C352.400000,175,352.500000,174.900000,352.500000,174.900000C352.500000,174.800000,352.500000,174.600000,352.500000,174.500000L352.500000,174.500000Z" fill="rgb(255,255,255)" stroke="none" stroke-width="1"/><path id="e8wc6j81kr226" d="M352,177.100000C352,177.300000,352,177.500000,352,177.700000C352,177.800000,352,177.800000,351.900000,177.800000C351.900000,177.800000,351.800000,177.800000,351.800000,177.800000C351.800000,177.800000,351.700000,177.800000,351.700000,177.800000C351.700000,177.800000,351.600000,177.800000,351.600000,177.800000C351.600000,177.800000,351.500000,177.800000,351.500000,177.800000C351.500000,177.800000,351.400000,177.800000,351.400000,177.800000C351.400000,177.800000,351.300000,177.800000,351.300000,177.700000C351.300000,177.700000,351.200000,177.600000,351.200000,177.600000C351.200000,177.600000,351.200000,177.500000,351.200000,177.500000C351.200000,177.100000,351.200000,176.800000,351.200000,176.400000C351.200000,176.300000,351.200000,176.300000,351.300000,176.300000C351.500000,176.300000,351.500000,176.300000,351.500000,176.500000C351.500000,176.500000,351.500000,176.600000,351.500000,176.600000L351.500000,177.200000C351.500000,177.300000,351.500000,177.300000,351.500000,177.400000C351.500000,177.400000,351.500000,177.500000,351.500000,177.500000C351.500000,177.500000,351.500000,177.500000,351.600000,177.500000C351.600000,177.500000,351.700000,177.500000,351.700000,177.500000C351.700000,177.500000,351.800000,177.500000,351.800000,177.400000C351.800000,177.300000,351.800000,177.300000,351.800000,177.200000C351.800000,176.900000,351.800000,176.700000,351.800000,176.400000C351.800000,176.300000,351.800000,176.300000,351.900000,176.300000L352,176.300000C352.100000,176.300000,352.100000,176.300000,352.100000,176.400000C352,176.700000,352,176.900000,352,177.100000L352,177.100000Z" fill="rgb(255,255,255)" stroke="none" stroke-width="1"/><path id="e8wc6j81kr227" d="M353.400000,174.500000C353.400000,174.300000,353.400000,174.100000,353.400000,173.900000C353.400000,173.800000,353.500000,173.800000,353.500000,173.800000C353.600000,173.800000,353.800000,173.800000,353.900000,173.800000C354.200000,173.800000,354.300000,173.900000,354.300000,174.100000C354.300000,174.400000,354.300000,174.800000,354.300000,175.100000C354.300000,175.200000,354.300000,175.200000,354.200000,175.200000C354.100000,175.200000,354.100000,175.200000,354,175.100000C354,174.900000,354,174.600000,354,174.400000C354,174.300000,354,174.200000,354,174.100000C354,174.100000,354,174,354,174C354,174,353.900000,174,353.900000,174C353.900000,174,353.800000,174,353.800000,174C353.800000,174,353.700000,174.100000,353.700000,174.100000C353.700000,174.200000,353.700000,174.200000,353.700000,174.300000C353.700000,174.600000,353.700000,174.800000,353.700000,175.100000C353.700000,175.100000,353.700000,175.200000,353.600000,175.200000C353.500000,175.200000,353.500000,175.200000,353.400000,175.200000C353.400000,175.200000,353.400000,175.100000,353.400000,175.100000C353.400000,174.900000,353.400000,174.700000,353.400000,174.500000L353.400000,174.500000Z" fill="rgb(255,255,255)" stroke="none" stroke-width="1"/><path id="e8wc6j81kr228" d="M355,177.100000C355,177.200000,355,177.300000,355,177.400000C355,177.400000,355,177.500000,355,177.500000C355,177.500000,355.100000,177.500000,355.100000,177.500000C355.200000,177.500000,355.300000,177.400000,355.300000,177.300000C355.300000,177.300000,355.300000,177.200000,355.300000,177.200000C355.300000,177.100000,355.400000,177,355.500000,177.100000C355.500000,177.100000,355.500000,177.100000,355.600000,177.100000C355.600000,177.100000,355.600000,177.100000,355.600000,177.200000C355.600000,177.300000,355.600000,177.400000,355.600000,177.500000C355.600000,177.600000,355.500000,177.600000,355.500000,177.700000C355.500000,177.700000,355.400000,177.800000,355.300000,177.800000C355.200000,177.800000,355.100000,177.800000,355,177.800000C354.900000,177.800000,354.900000,177.700000,354.800000,177.700000C354.800000,177.600000,354.700000,177.600000,354.700000,177.500000C354.700000,177.200000,354.700000,176.900000,354.700000,176.700000C354.700000,176.600000,354.700000,176.500000,354.800000,176.500000C354.900000,176.400000,354.900000,176.400000,355,176.400000C355.100000,176.400000,355.100000,176.400000,355.200000,176.400000C355.300000,176.400000,355.300000,176.400000,355.400000,176.400000C355.500000,176.400000,355.500000,176.500000,355.500000,176.500000C355.500000,176.600000,355.600000,176.600000,355.600000,176.700000C355.600000,176.800000,355.600000,176.800000,355.600000,176.900000C355.600000,177,355.500000,177,355.500000,177C355.400000,177,355.400000,177,355.400000,176.900000C355.400000,176.900000,355.400000,176.800000,355.400000,176.800000C355.400000,176.800000,355.400000,176.700000,355.300000,176.700000C355.300000,176.700000,355.200000,176.700000,355.200000,176.700000C355.200000,176.700000,355.100000,176.700000,355.100000,176.700000C355.100000,176.700000,355.100000,176.800000,355.100000,176.800000C355,176.800000,355,176.900000,355,177.100000L355,177.100000Z" fill="rgb(255,255,255)" stroke="none" stroke-width="1"/><path id="e8wc6j81kr229" d="M347.500000,177.100000C347.500000,177,347.500000,176.900000,347.500000,176.700000C347.500000,176.600000,347.500000,176.500000,347.600000,176.400000C347.700000,176.300000,347.800000,176.300000,347.900000,176.300000C347.900000,176.300000,347.900000,176.300000,348,176.300000C348.300000,176.300000,348.500000,176.400000,348.500000,176.700000C348.500000,176.800000,348.400000,176.900000,348.300000,176.800000C348.300000,176.800000,348.300000,176.800000,348.200000,176.800000C348.200000,176.800000,348.200000,176.800000,348.200000,176.800000C348.200000,176.800000,348.200000,176.700000,348.200000,176.700000C348.200000,176.700000,348.200000,176.600000,348.200000,176.600000C348.200000,176.600000,348.100000,176.600000,348.100000,176.600000C348.100000,176.600000,348,176.600000,348,176.600000C348,176.600000,347.900000,176.600000,347.900000,176.700000C347.900000,176.700000,347.900000,176.800000,347.900000,176.800000C347.900000,177,347.900000,177.200000,347.900000,177.400000C347.900000,177.400000,347.900000,177.500000,347.900000,177.500000C347.900000,177.500000,347.900000,177.500000,348,177.600000C348,177.600000,348.100000,177.600000,348.100000,177.600000C348.100000,177.600000,348.200000,177.600000,348.200000,177.600000C348.200000,177.600000,348.200000,177.600000,348.300000,177.500000C348.300000,177.400000,348.300000,177.400000,348.300000,177.300000C348.300000,177.200000,348.400000,177.200000,348.500000,177.200000C348.500000,177.200000,348.500000,177.200000,348.600000,177.200000C348.600000,177.200000,348.600000,177.200000,348.600000,177.300000C348.600000,177.300000,348.600000,177.400000,348.600000,177.400000C348.600000,177.500000,348.600000,177.600000,348.600000,177.600000C348.600000,177.700000,348.500000,177.700000,348.400000,177.800000C348.300000,177.800000,348.200000,177.900000,348.100000,177.900000C348,177.900000,347.900000,177.900000,347.800000,177.800000C347.700000,177.800000,347.700000,177.700000,347.700000,177.700000C347.700000,177.700000,347.700000,177.600000,347.600000,177.500000C347.500000,177.300000,347.500000,177.200000,347.500000,177.100000L347.500000,177.100000Z" fill="rgb(255,255,255)" stroke="none" stroke-width="1"/><path id="e8wc6j81kr230" d="M350.600000,177C350.600000,177.100000,350.600000,177.200000,350.600000,177.400000C350.600000,177.500000,350.600000,177.600000,350.500000,177.600000C350.500000,177.700000,350.400000,177.700000,350.300000,177.700000C350.200000,177.700000,350.100000,177.700000,350,177.700000C349.900000,177.700000,349.800000,177.700000,349.800000,177.600000C349.800000,177.600000,349.700000,177.500000,349.700000,177.500000C349.700000,177.500000,349.700000,177.400000,349.700000,177.300000C349.700000,177.100000,349.700000,176.800000,349.700000,176.600000C349.700000,176.500000,349.700000,176.500000,349.700000,176.400000C349.700000,176.400000,349.800000,176.300000,349.800000,176.300000C349.800000,176.300000,349.900000,176.200000,349.900000,176.200000C350,176.200000,350,176.200000,350.100000,176.200000C350.200000,176.200000,350.200000,176.200000,350.300000,176.200000C350.400000,176.200000,350.400000,176.200000,350.500000,176.300000C350.500000,176.300000,350.600000,176.400000,350.600000,176.400000C350.600000,176.400000,350.600000,176.500000,350.700000,176.600000C350.600000,176.800000,350.600000,176.900000,350.600000,177L350.600000,177ZM350,177C350,177.100000,350,177.200000,350,177.400000C350,177.400000,350,177.400000,350,177.500000C350,177.500000,350,177.500000,350,177.500000C350,177.500000,350,177.500000,350.100000,177.500000C350.100000,177.500000,350.100000,177.500000,350.200000,177.500000C350.200000,177.500000,350.200000,177.500000,350.300000,177.500000C350.300000,177.500000,350.300000,177.500000,350.400000,177.500000C350.400000,177.500000,350.400000,177.500000,350.400000,177.400000C350.400000,177.400000,350.400000,177.400000,350.400000,177.300000C350.400000,177.100000,350.400000,176.900000,350.400000,176.700000L350.400000,176.700000C350.400000,176.700000,350.400000,176.600000,350.300000,176.600000C350.300000,176.600000,350.200000,176.600000,350.200000,176.600000C350.200000,176.600000,350.100000,176.600000,350.100000,176.700000C350.100000,176.800000,350.100000,176.800000,350.100000,176.800000C350,176.800000,350,176.900000,350,177L350,177Z" fill="rgb(255,255,255)" stroke="none" stroke-width="1"/><path id="e8wc6j81kr231" d="M357.100000,177C357.100000,177.100000,357.100000,177.200000,357.100000,177.400000C357.100000,177.500000,357.100000,177.500000,357.100000,177.600000C357.100000,177.600000,357,177.700000,357,177.700000C357,177.700000,356.900000,177.800000,356.900000,177.800000C356.800000,177.800000,356.800000,177.800000,356.700000,177.800000C356.600000,177.800000,356.600000,177.800000,356.500000,177.800000C356.400000,177.800000,356.400000,177.800000,356.300000,177.700000C356.300000,177.700000,356.200000,177.600000,356.200000,177.600000C356.200000,177.600000,356.200000,177.500000,356.200000,177.400000C356.200000,177.100000,356.200000,176.900000,356.200000,176.600000C356.200000,176.500000,356.200000,176.500000,356.200000,176.500000C356.200000,176.500000,356.300000,176.400000,356.300000,176.400000C356.300000,176.400000,356.400000,176.300000,356.400000,176.300000C356.500000,176.300000,356.500000,176.300000,356.600000,176.300000C356.700000,176.300000,356.700000,176.300000,356.800000,176.300000C356.900000,176.300000,356.900000,176.300000,356.900000,176.400000C356.900000,176.400000,357,176.500000,357,176.500000C357,176.500000,357,176.600000,357,176.700000C357.100000,176.800000,357.100000,176.900000,357.100000,177L357.100000,177ZM356.800000,177C356.800000,176.900000,356.800000,176.800000,356.800000,176.700000C356.800000,176.700000,356.800000,176.700000,356.800000,176.600000C356.800000,176.600000,356.800000,176.600000,356.800000,176.600000C356.800000,176.600000,356.800000,176.600000,356.700000,176.600000C356.700000,176.600000,356.700000,176.600000,356.600000,176.600000C356.600000,176.600000,356.600000,176.600000,356.500000,176.600000C356.500000,176.600000,356.500000,176.600000,356.500000,176.600000C356.500000,176.600000,356.500000,176.600000,356.500000,176.600000C356.500000,176.600000,356.500000,176.600000,356.500000,176.700000C356.500000,176.900000,356.500000,177.200000,356.500000,177.400000C356.500000,177.400000,356.500000,177.400000,356.500000,177.500000C356.500000,177.500000,356.500000,177.500000,356.500000,177.500000C356.500000,177.500000,356.500000,177.500000,356.600000,177.500000C356.600000,177.500000,356.600000,177.500000,356.700000,177.500000C356.700000,177.500000,356.800000,177.500000,356.800000,177.500000C356.800000,177.500000,356.800000,177.400000,356.800000,177.400000C356.800000,177.300000,356.800000,177.200000,356.800000,177L356.800000,177Z" fill="rgb(255,255,255)" stroke="none" stroke-width="1"/><path id="e8wc6j81kr232" d="M350.900000,174.600000C351,174.500000,351,174.500000,351,174.400000C351,174.200000,351.100000,174,351.100000,173.900000C351.100000,173.900000,351.100000,173.900000,351.100000,173.800000C351.100000,173.700000,351.100000,173.800000,351.200000,173.800000C351.200000,173.800000,351.200000,173.800000,351.300000,173.800000C351.300000,173.800000,351.300000,173.800000,351.400000,173.800000C351.400000,173.800000,351.400000,173.900000,351.400000,173.900000C351.300000,174.200000,351.300000,174.600000,351.200000,174.900000C351.200000,175,351.200000,175,351.200000,175.100000C351.200000,175.200000,351.100000,175.200000,351,175.200000C350.900000,175.200000,350.800000,175.200000,350.800000,175.100000C350.700000,174.700000,350.600000,174.300000,350.500000,173.900000C350.500000,173.800000,350.500000,173.700000,350.600000,173.800000C350.700000,173.800000,350.700000,173.800000,350.700000,173.900000C350.800000,174.100000,350.800000,174.300000,350.900000,174.600000Z" fill="rgb(255,255,255)" stroke="none" stroke-width="1"/><path id="e8wc6j81kr233" d="M349.100000,174.500000C349.100000,174.300000,349.100000,174.100000,349.100000,173.900000C349.100000,173.800000,349.100000,173.800000,349.200000,173.800000C349.200000,173.800000,349.300000,173.800000,349.300000,173.800000C349.300000,173.800000,349.400000,173.800000,349.400000,173.800000C349.700000,173.700000,349.900000,173.800000,349.900000,174.100000C349.900000,174.100000,349.900000,174.200000,349.900000,174.200000C349.900000,174.200000,349.900000,174.200000,349.900000,174.300000C349.900000,174.300000,349.900000,174.300000,349.800000,174.300000C349.800000,174.300000,349.800000,174.300000,349.700000,174.300000C349.700000,174.300000,349.700000,174.300000,349.600000,174.300000C349.600000,174.300000,349.600000,174.300000,349.600000,174.300000C349.600000,174.300000,349.600000,174.300000,349.600000,174.300000C349.600000,174.300000,349.600000,174.200000,349.600000,174.200000C349.600000,174.100000,349.600000,174.100000,349.500000,174.100000C349.500000,174.100000,349.400000,174.100000,349.400000,174.100000C349.400000,174.100000,349.300000,174.200000,349.300000,174.200000C349.300000,174.300000,349.300000,174.300000,349.300000,174.400000L349.300000,175.100000C349.300000,175.200000,349.300000,175.200000,349.300000,175.300000C349.300000,175.300000,349.300000,175.300000,349.300000,175.300000C349.300000,175.300000,349.300000,175.300000,349.300000,175.300000C349.200000,175.300000,349.100000,175.300000,349.100000,175.100000C349.100000,174.900000,349.100000,174.700000,349.100000,174.500000L349.100000,174.500000Z" fill="rgb(255,255,255)" stroke="none" stroke-width="1"/><path id="e8wc6j81kr234" d="M348.900000,176.800000C348.900000,176.500000,348.900000,176.200000,348.900000,176C348.900000,176,348.900000,175.900000,349,175.900000C349,175.900000,349.100000,175.900000,349.100000,175.900000C349.100000,175.900000,349.200000,175.900000,349.200000,175.900000C349.200000,175.900000,349.200000,175.900000,349.200000,175.900000C349.200000,175.900000,349.200000,175.900000,349.200000,176C349.200000,176.600000,349.200000,177.100000,349.200000,177.700000C349.200000,177.700000,349.200000,177.700000,349.200000,177.800000C349.200000,177.800000,349.200000,177.800000,349.200000,177.800000C349.200000,177.800000,349.100000,177.800000,349.100000,177.800000C349.100000,177.800000,349,177.800000,349,177.800000C349,177.800000,349,177.800000,349,177.800000C349,177.800000,349,177.800000,349,177.700000L348.900000,176.800000Z" fill="rgb(255,255,255)" stroke="none" stroke-width="1"/><path id="e8wc6j81kr235" d="M354.200000,177.600000L354.200000,177.600000C354.200000,177.700000,354.200000,177.700000,354.200000,177.700000C354.200000,177.700000,354.200000,177.700000,354.200000,177.700000C354.200000,177.700000,354.200000,177.700000,354.200000,177.700000C354.200000,177.700000,354.200000,177.700000,354.200000,177.700000C354.100000,177.700000,354.100000,177.700000,354,177.700000C354,177.700000,354,177.700000,354,177.700000C354,177.700000,354,177.700000,354,177.700000C354,177.700000,354,177.700000,354,177.700000C354,177.700000,354,177.700000,354,177.700000L354,177.700000C354,177.500000,354,177.500000,354.200000,177.500000C354.200000,177.400000,354.200000,177.500000,354.200000,177.600000C354.300000,177.600000,354.300000,177.600000,354.200000,177.600000L354.200000,177.600000Z" fill="rgb(255,255,255)" stroke="none" stroke-width="1"/></g><g id="e8wc6j81kr236"><circle id="e8wc6j81kr237" r="51.300000" transform="matrix(1 0 0 1 51.30000000000000 161)" fill="rgb(75,75,75)" stroke="none" stroke-width="1"/><g id="e8wc6j81kr238"><g id="e8wc6j81kr239" clip-path="url(#e8wc6j81kr243)"><g id="e8wc6j81kr240"><path id="e8wc6j81kr241" d="M50.500000,123.900000C51.900000,125.400000,53.400000,126.900000,54.900000,128.400000C55.700000,129.100000,55.500000,129.600000,54.800000,130.200000C53.300000,131.600000,52,133.200000,50.500000,134.500000C49.600000,135.300000,49.800000,135.800000,50.600000,136.500000C54.100000,140,57.500000,143.500000,60.900000,147C61.800000,147.900000,61.800000,148.300000,60.200000,149.600000C56.700000,152.400000,53.500000,155.600000,50.700000,159.200000C44.400000,167.300000,32.400000,167.900000,25.400000,160.900000C23.500000,159,21.600000,157,19.600000,155.100000C18.800000,154.300000,19,153.900000,20,153.100000C21.500000,151.800000,22.800000,150.400000,24.100000,148.900000C24.800000,148,25.200000,148,25.800000,148.700000C29.500000,152.500000,33.200000,156.400000,37,160.200000C40.100000,163.300000,44.900000,163.600000,48.300000,160.900000C49,160.400000,49,160.100000,48.400000,159.400000C44.900000,155.900000,41.500000,152.400000,38.100000,148.900000C37.400000,148.200000,37.500000,147.800000,38.100000,147.200000C41.700000,143.600000,45.100000,140,48.700000,136.500000C49.400000,135.800000,49.400000,135.400000,48.700000,134.800000C47.200000,133.400000,45.800000,131.800000,44.300000,130.400000C43.500000,129.600000,43.600000,129.200000,44.400000,128.500000C45.900000,127.100000,47.400000,125.500000,48.900000,123.900000C48.900000,123.900000,48.900000,123.900000,49,123.800000C49.400000,123.400000,50,123.400000,50.400000,123.800000L50.500000,123.900000Z" fill="rgb(255,255,255)" stroke="none" stroke-width="1"/><path id="e8wc6j81kr242" d="M63.600000,157.400000C68.600000,157.500000,72.600000,159.100000,76,162.400000C77.900000,164.300000,79.700000,166.300000,81.700000,168.100000C82.300000,168.700000,82.200000,169,81.700000,169.500000C80.100000,171.100000,78.600000,172.600000,77.100000,174.200000C76.500000,174.900000,76.100000,174.900000,75.400000,174.200000C71.800000,170.400000,68.100000,166.700000,64.500000,163C61.300000,159.800000,56.700000,159.400000,53.200000,162C52.500000,162.600000,52.200000,162.900000,53,163.700000C56.500000,167.100000,59.800000,170.700000,63.200000,174.100000C63.800000,174.700000,63.900000,175.100000,63.200000,175.800000C59.600000,179.400000,56.100000,183.100000,52.500000,186.700000C51.900000,187.300000,51.800000,187.700000,52.500000,188.300000C54.100000,189.800000,55.600000,191.500000,57.200000,193C57.700000,193.500000,57.800000,193.800000,57.300000,194.400000C55.600000,196,54,197.600000,52.500000,199.300000C51.900000,199.900000,51.600000,199.900000,51.100000,199.300000C49.600000,197.600000,48,196,46.400000,194.500000C45.800000,193.900000,45.700000,193.600000,46.400000,193C48,191.500000,49.400000,189.900000,51,188.400000C51.800000,187.700000,51.600000,187.300000,50.900000,186.600000C47.400000,183.100000,43.900000,179.500000,40.400000,175.900000C39.700000,175.200000,39.700000,174.800000,40.400000,174.100000C44.200000,170.300000,48,166.400000,51.800000,162.500000C55,159.200000,59.100000,157.500000,63.600000,157.400000Z" fill="rgb(242,125,32)" stroke="none" stroke-width="1"/></g><clipPath id="e8wc6j81kr243"><use id="e8wc6j81kr244" width="62.900002" height="76.599998" xlink:href="#e8wc6j81kr22" transform="matrix(1 0 0 1 19.20000000000000 123.40000000000001)" fill="rgb(0,0,0)" stroke="none" stroke-width="1"/></clipPath></g></g></g><g id="e8wc6j81kr245"><path id="e8wc6j81kr246" d="M242.500000,168.800000L212,150.800000C210.400000,149.900000,209.900000,147.900000,210.800000,146.300000C210.800000,146.300000,211.600000,145,212.400000,143.700000L206.200000,140.100000C202.100000,137.800000,200.200000,137.300000,196.600000,138.800000L192.600000,140.300000C190.200000,141.200000,187.400000,141,185.200000,139.700000L174.500000,133.400000L159.300000,159L173,167.100000C173.900000,167.700000,174.700000,168.400000,175.400000,169.200000L180,175.200000C182.600000,178.200000,187.800000,182.100000,191.200000,184L208.800000,194.400000C211.100000,195.800000,214.100000,195,215.500000,192.700000C216.900000,190.400000,216.100000,187.400000,213.800000,186L219.300000,189.300000C221.600000,190.700000,224.600000,189.900000,226,187.600000C227.400000,185.300000,226.600000,182.300000,224.300000,180.900000L228,183.100000C230.300000,184.500000,233.300000,183.700000,234.700000,181.400000C236.100000,179.100000,235.300000,176.100000,233,174.700000L237.500000,177.400000C239.800000,178.800000,242.800000,178,244.200000,175.700000C245.600000,173.100000,244.800000,170.100000,242.500000,168.800000L242.500000,168.800000Z" fill="rgb(244,248,248)" stroke="none" stroke-width="1"/><path id="e8wc6j81kr247" d="M242.500000,168.800000L232,162.600000C231.800000,163.500000,231.300000,164.400000,230.600000,165.100000C228.700000,167,225.700000,167.300000,223.400000,166L220.400000,164.200000C220.300000,164.100000,220.200000,164.200000,220.100000,164.200000C220,164.300000,220,164.400000,220.100000,164.500000C221.300000,166.300000,221.500000,168.700000,220.300000,170.700000C218.700000,173.400000,215.200000,174.300000,212.500000,172.700000L210.200000,171.300000C210.100000,171.200000,210,171.300000,209.900000,171.300000C209.800000,171.400000,209.800000,171.500000,209.900000,171.600000C211.300000,173.400000,211.500000,176,210.200000,178C208.600000,180.700000,205,181.400000,202.300000,179.800000L200.400000,178.700000C200,178.500000,199.500000,178.500000,199.200000,178.700000C198.800000,179,198.700000,179.400000,198.700000,179.800000C199,181.100000,198.800000,182.600000,198,183.800000C197.400000,184.900000,196.400000,185.700000,195.300000,186.100000L208.700000,194C211.100000,195.400000,214.200000,194.700000,215.600000,192.300000C216.900000,190,216.100000,187,213.800000,185.700000L219.200000,188.900000C221.600000,190.300000,224.700000,189.600000,226.100000,187.200000C227.400000,184.900000,226.600000,181.900000,224.300000,180.600000L227.900000,182.700000C230.300000,184.100000,233.400000,183.400000,234.800000,181C236.100000,178.700000,235.300000,175.700000,233,174.400000L237.400000,177C239.800000,178.400000,242.900000,177.700000,244.300000,175.300000C245.600000,173.100000,244.800000,170.100000,242.500000,168.800000L242.500000,168.800000Z" fill="rgb(244,248,248)" stroke="none" stroke-width="1"/><path id="e8wc6j81kr248" d="M239.800000,134.700000L231.600000,139.500000C229.400000,140.800000,226.600000,141.100000,224.200000,140.100000L219.700000,138.300000C218.300000,137.700000,216.700000,137.600000,215.300000,138L208.400000,139.700000C205.200000,140.500000,202.900000,143.400000,202.900000,146.700000L202.900000,155.900000C202.900000,157.200000,204,158.300000,205.300000,158.300000C209.200000,158.300000,212.400000,155.100000,212.400000,151.200000L212.400000,150.800000L242,168.300000C242.500000,167.700000,243.200000,167.200000,243.900000,166.800000L255.100000,160.200000L239.800000,134.700000Z" fill="rgb(244,248,248)" stroke="none" stroke-width="1"/><path id="e8wc6j81kr249" d="M244.200000,142.100000L242.600000,148L224.900000,158.400000L241.900000,168.500000C242.400000,167.900000,243.100000,167.400000,243.800000,167L255,160.400000L244.200000,142.100000Z" fill="rgb(231,236,244)" stroke="none" stroke-width="1"/><path id="e8wc6j81kr250" d="M179,172.400000L176.200000,176.300000C174.600000,178.500000,171.600000,179,169.400000,177.400000C167.200000,175.800000,166.700000,172.800000,168.300000,170.600000L171.100000,166.700000C172.700000,164.500000,175.700000,164,177.900000,165.600000C180.100000,167.100000,180.600000,170.200000,179,172.400000Z" fill="rgb(231,236,244)" stroke="none" stroke-width="1"/><path id="e8wc6j81kr251" d="M190,173.800000L184.200000,181.900000C182.600000,184.100000,179.600000,184.600000,177.400000,183C175.200000,181.400000,174.700000,178.400000,176.300000,176.200000L182.100000,168.100000C183.700000,165.900000,186.700000,165.400000,188.900000,167C191.100000,168.600000,191.600000,171.600000,190,173.800000Z" fill="rgb(231,236,244)" stroke="none" stroke-width="1"/><path id="e8wc6j81kr252" d="M198,179.500000L192.200000,187.600000C190.600000,189.800000,187.600000,190.300000,185.400000,188.700000C183.200000,187.100000,182.700000,184.100000,184.300000,181.900000L190.100000,173.800000C191.700000,171.600000,194.700000,171.100000,196.900000,172.700000C199.100000,174.300000,199.600000,177.300000,198,179.500000Z" fill="rgb(231,236,244)" stroke="none" stroke-width="1"/><path id="e8wc6j81kr253" d="M203.400000,188.800000L201.500000,191.500000C199.900000,193.700000,196.900000,194.200000,194.700000,192.600000C192.500000,191,192,188,193.600000,185.800000L195.500000,183.100000C197.100000,180.900000,200.100000,180.400000,202.300000,182C204.400000,183.600000,204.900000,186.700000,203.400000,188.800000Z" fill="rgb(231,236,244)" stroke="none" stroke-width="1"/><path id="e8wc6j81kr254" d="M180.300000,130.500000L176,128C174.800000,127.300000,173.300000,127.700000,172.600000,128.900000L155,158.600000C154.300000,159.800000,154.700000,161.300000,155.900000,162L160.200000,164.500000C163.100000,166.200000,166.800000,165.300000,168.500000,162.400000L182.500000,138.800000C184.100000,136,183.100000,132.300000,180.300000,130.500000L180.300000,130.500000Z" fill="rgb(32,197,186)" stroke="none" stroke-width="1"/><path id="e8wc6j81kr255" d="M237.700000,128L233.400000,130.500000C230.500000,132.200000,229.600000,135.900000,231.300000,138.800000L245.300000,162.400000C247,165.300000,250.700000,166.200000,253.600000,164.500000L257.900000,162C259.100000,161.300000,259.500000,159.800000,258.800000,158.600000L241.200000,128.900000C240.400000,127.700000,238.900000,127.300000,237.700000,128L237.700000,128Z" fill="rgb(32,197,186)" stroke="none" stroke-width="1"/><path id="e8wc6j81kr256" d="M260.500000,157.600000L242.900000,127.900000C241.600000,125.700000,238.800000,125,236.700000,126.300000L232.400000,128.800000C229.100000,130.800000,227.700000,134.800000,228.800000,138.300000C227.400000,138.800000,225.800000,138.800000,224.300000,138.300000C220.900000,137.200000,218.300000,135.100000,214.100000,136.200000C206.900000,138,207.100000,137.900000,206.500000,138.200000C202.300000,135.800000,199.700000,135.100000,195.300000,136.800000L191.300000,138.300000C189.400000,139,187.400000,138.800000,185.700000,137.800000L184.600000,137.200000C185.100000,134,183.700000,130.600000,180.700000,128.900000L180.700000,128.900000L176.400000,126.400000C174.200000,125.100000,171.400000,125.800000,170.200000,128L152.600000,157.700000C151.300000,159.900000,152,162.700000,154.200000,163.900000L158.500000,166.400000C159.800000,167.200000,161.200000,167.500000,162.600000,167.500000C164.200000,167.500000,165.700000,167,167,166.200000L167.900000,166.700000L166,169.300000C163.800000,172.400000,164.500000,176.800000,167.600000,179C169,180,170.900000,180.500000,172.700000,180.200000C173,181.900000,174,183.600000,175.500000,184.700000C177,185.700000,178.800000,186.200000,180.600000,185.900000C180.900000,187.600000,181.900000,189.300000,183.400000,190.400000C185.500000,191.900000,188.100000,192.100000,190.200000,191.100000C190.700000,192.300000,191.500000,193.400000,192.600000,194.200000C195.600000,196.300000,199.700000,195.800000,202,193L207,196C210.300000,198,214.600000,196.900000,216.600000,193.600000C217.100000,192.800000,217.400000,191.800000,217.500000,190.900000L217.500000,190.900000C220.800000,192.900000,225.100000,191.800000,227.100000,188.500000C227.700000,187.500000,228,186.500000,228.100000,185.500000C231,186.200000,234.200000,185,235.800000,182.300000C236.300000,181.400000,236.600000,180.400000,236.700000,179.500000C239.800000,180.700000,243.500000,179.500000,245.200000,176.600000C246.100000,175,246.400000,173.100000,246,171.300000C245.700000,170.300000,245.200000,169.300000,244.600000,168.500000L247.400000,166.900000C249.700000,167.900000,252.400000,167.700000,254.600000,166.400000L258.900000,163.900000C261.100000,162.500000,261.800000,159.700000,260.500000,157.600000L260.500000,157.600000ZM160.500000,162.800000L156.200000,160.300000C156,160.200000,155.900000,159.900000,156.100000,159.700000L173.700000,130C173.800000,129.800000,174.100000,129.700000,174.200000,129.900000L178.500000,132.400000C180.400000,133.500000,181,136,179.900000,137.800000L165.900000,161.400000C164.800000,163.300000,162.400000,163.900000,160.500000,162.800000L160.500000,162.800000ZM170,175.700000C168.700000,174.800000,168.400000,173,169.400000,171.800000L172.200000,167.900000C173.100000,166.700000,174.800000,166.300000,176.100000,167.300000C177.400000,168.200000,177.600000,170,176.700000,171.200000L173.900000,175.100000C173,176.300000,171.200000,176.600000,170,175.700000L170,175.700000ZM177.900000,181.400000C176.600000,180.500000,176.400000,178.700000,177.300000,177.500000L180.100000,173.600000L180.100000,173.600000C180.100000,173.600000,180.100000,173.600000,180.100000,173.600000L183.200000,169.300000C183.600000,168.700000,184.300000,168.300000,185,168.200000C185.200000,168.200000,185.300000,168.200000,185.500000,168.200000C186.100000,168.200000,186.700000,168.400000,187.100000,168.700000C187.700000,169.100000,188.100000,169.800000,188.200000,170.500000C188.300000,171.200000,188.100000,172,187.700000,172.600000L181.900000,180.700000C180.900000,182,179.200000,182.300000,177.900000,181.400000L177.900000,181.400000ZM185.900000,187.100000C184.600000,186.200000,184.400000,184.400000,185.300000,183.200000C185.300000,183.200000,185.300000,183.200000,185.300000,183.200000L191.100000,175.100000C192,173.800000,193.800000,173.600000,195,174.500000C196.300000,175.400000,196.500000,177.200000,195.600000,178.400000L193,182L193,182L189.800000,186.500000C188.900000,187.700000,187.100000,188,185.900000,187.100000L185.900000,187.100000ZM195.100000,191C193.800000,190.100000,193.600000,188.300000,194.500000,187.100000L196.400000,184.400000C197.300000,183.100000,199.100000,182.900000,200.300000,183.800000C201.600000,184.700000,201.800000,186.500000,200.900000,187.700000L199,190.400000C198.100000,191.600000,196.400000,191.900000,195.100000,191L195.100000,191ZM241.700000,174.400000C240.900000,175.700000,239.200000,176.200000,237.800000,175.400000C235.500000,174.100000,221,165.400000,219.400000,164.500000C218.400000,163.900000,217.100000,164.200000,216.600000,165.200000C216,166.200000,216.300000,167.500000,217.300000,168L231.200000,176.200000L231.200000,176.200000C232.500000,177,233,178.700000,232.200000,180.100000C231.400000,181.400000,229.700000,181.900000,228.300000,181.100000C223.200000,178.100000,219,175.600000,214.400000,172.900000C213.400000,172.300000,212.100000,172.600000,211.600000,173.600000C211,174.600000,211.300000,175.900000,212.300000,176.400000L222.600000,182.500000L222.600000,182.500000C223.900000,183.300000,224.400000,185,223.600000,186.400000C222.800000,187.700000,221.100000,188.200000,219.700000,187.400000L214.200000,184.100000C214.200000,184.100000,214.200000,184.100000,214.200000,184.100000C214.200000,184.100000,214.200000,184.100000,214.200000,184.100000L210.200000,181.700000C209.200000,181.100000,207.900000,181.400000,207.400000,182.400000C206.800000,183.400000,207.100000,184.700000,208.100000,185.200000L212.100000,187.600000C212.100000,187.600000,212.100000,187.600000,212.100000,187.600000C213.400000,188.400000,213.900000,190.100000,213.100000,191.500000C212.300000,192.800000,210.600000,193.300000,209.200000,192.500000L204.500000,189.700000C206.500000,186.600000,205.700000,182.400000,202.700000,180.300000C201.800000,179.700000,200.800000,179.300000,199.800000,179.100000C200.900000,176.200000,199.900000,172.900000,197.300000,171C195.800000,169.900000,193.900000,169.500000,192.200000,169.800000C191.900000,168,190.900000,166.400000,189.400000,165.300000C186.600000,163.300000,182.700000,163.700000,180.400000,166.100000C179.900000,165.300000,179.300000,164.500000,178.400000,163.900000C176.100000,162.200000,173,162.200000,170.700000,163.600000L169.700000,163L182.800000,140.900000L183.400000,141.300000C186.200000,142.900000,189.500000,143.300000,192.600000,142.100000L196.600000,140.600000C198.900000,139.700000,200.100000,139.700000,202.400000,140.700000C200.900000,142.400000,200,144.500000,200,146.900000L200,156.100000C200,158.500000,202,160.500000,204.400000,160.500000L204.400000,160.500000C206.900000,160.500000,209.200000,159.500000,210.900000,157.800000C211.900000,156.800000,212.700000,155.600000,213.100000,154.300000C215.800000,155.900000,238,169,240.500000,170.500000C241.100000,170.900000,241.600000,171.500000,241.800000,172.200000C242.200000,173,242.100000,173.700000,241.700000,174.400000L241.700000,174.400000ZM256.800000,160.200000L252.500000,162.700000C250.600000,163.800000,248.200000,163.200000,247.100000,161.300000L240.500000,150.200000C239.900000,149.200000,238.600000,148.900000,237.700000,149.500000C236.700000,150.100000,236.400000,151.400000,237,152.300000L243.600000,163.400000C243.700000,163.600000,243.900000,163.800000,244,164L242.200000,165.100000C241.800000,165.300000,241.500000,165.600000,241.100000,165.800000L212.900000,149.100000C211.500000,148.300000,209.800000,149.300000,209.800000,150.900000C209.800000,151,210,153.200000,208.300000,154.900000C207.300000,155.800000,206.100000,156.400000,204.700000,156.400000C204.700000,156.400000,204.700000,156.400000,204.700000,156.400000C204.500000,156.400000,204.400000,156.300000,204.400000,156.100000L204.400000,146.900000C204.400000,144.500000,206.100000,142.500000,208.300000,141.900000L215.200000,140.200000C217.700000,139.600000,219.100000,140.900000,222.900000,142.200000C225.500000,143.200000,228.300000,143.100000,230.800000,142.100000L232.100000,144.200000C232.700000,145.200000,234,145.500000,234.900000,144.900000C235.900000,144.300000,236.200000,143,235.600000,142.100000L233.100000,137.900000C232,136,232.600000,133.600000,234.500000,132.500000L238.800000,130C239,129.900000,239.200000,129.900000,239.400000,130.100000L257,159.800000C257,159.900000,257,160.100000,256.800000,160.200000L256.800000,160.200000Z" fill="rgb(21,90,109)" stroke="none" stroke-width="1"/></g><circle id="e8wc6j81kr257" r="6.700000" transform="matrix(1 0 0 1 206.50000000000000 74.30000000000000)" fill="rgb(32,197,186)" stroke="none" stroke-width="1"/><script><![CDATA[!function(t,n){"object"==typeof exports&&"undefined"!=typeof module?module.exports=n():"function"==typeof define&&define.amd?define(n):(t="undefined"!=typeof globalThis?globalThis:t||self).__SVGATOR_PLAYER__=n()}(this,(function(){"use strict";function t(n){return(t="function"==typeof Symbol&&"symbol"==typeof Symbol.iterator?function(t){return typeof t}:function(t){return t&&"function"==typeof Symbol&&t.constructor===Symbol&&t!==Symbol.prototype?"symbol":typeof t})(n)}function n(t,n){if(!(t instanceof n))throw new TypeError("Cannot call a class as a function")}function e(t,n){for(var e=0;e<n.length;e++){var r=n[e];r.enumerable=r.enumerable||!1,r.configurable=!0,"value"in r&&(r.writable=!0),Object.defineProperty(t,r.key,r)}}function r(t,n,r){return n&&e(t.prototype,n),r&&e(t,r),t}function i(t){return(i=Object.setPrototypeOf?Object.getPrototypeOf:function(t){return t.__proto__||Object.getPrototypeOf(t)})(t)}function u(t,n){return(u=Object.setPrototypeOf||function(t,n){return t.__proto__=n,t})(t,n)}function o(t,n){return!n||"object"!=typeof n&&"function"!=typeof n?function(t){if(void 0===t)throw new ReferenceError("this hasn't been initialised - super() hasn't been called");return t}(t):n}function a(t){var n=function(){if("undefined"==typeof Reflect||!Reflect.construct)return!1;if(Reflect.construct.sham)return!1;if("function"==typeof Proxy)return!0;try{return Boolean.prototype.valueOf.call(Reflect.construct(Boolean,[],(function(){}))),!0}catch(t){return!1}}();return function(){var e,r=i(t);if(n){var u=i(this).constructor;e=Reflect.construct(r,arguments,u)}else e=r.apply(this,arguments);return o(this,e)}}function l(t,n,e){return(l="undefined"!=typeof Reflect&&Reflect.get?Reflect.get:function(t,n,e){var r=function(t,n){for(;!Object.prototype.hasOwnProperty.call(t,n)&&null!==(t=i(t)););return t}(t,n);if(r){var u=Object.getOwnPropertyDescriptor(r,n);return u.get?u.get.call(e):u.value}})(t,n,e||t)}var s=Math.abs;function f(t){return t}function c(t,n,e){var r=1-e;return 3*e*r*(t*r+n*e)+e*e*e}function h(){var t=arguments.length>0&&void 0!==arguments[0]?arguments[0]:0,n=arguments.length>1&&void 0!==arguments[1]?arguments[1]:0,e=arguments.length>2&&void 0!==arguments[2]?arguments[2]:1,r=arguments.length>3&&void 0!==arguments[3]?arguments[3]:1;return t<0||t>1||e<0||e>1?null:s(t-n)<=1e-5&&s(e-r)<=1e-5?f:function(i){if(i<=0)return t>0?i*n/t:0===n&&e>0?i*r/e:0;if(i>=1)return e<1?1+(i-1)*(r-1)/(e-1):1===e&&t<1?1+(i-1)*(n-1)/(t-1):1;for(var u,o=0,a=1;o<a;){var l=c(t,e,u=(o+a)/2);if(s(i-l)<1e-5)break;l<i?o=u:a=u}return c(n,r,u)}}function v(){return 1}function d(t){return 1===t?1:0}function y(){var t=arguments.length>0&&void 0!==arguments[0]?arguments[0]:1,n=arguments.length>1&&void 0!==arguments[1]?arguments[1]:0;if(1===t){if(0===n)return d;if(1===n)return v}var e=1/t;return function(t){return t>=1?1:(t+=n*e)-t%e}}function g(t){var n=arguments.length>1&&void 0!==arguments[1]?arguments[1]:2;if(Number.isInteger(t))return t;var e=Math.pow(10,n);return Math.round(t*e)/e}var p=Math.PI/180;function m(t,n,e){return t>=.5?e:n}function b(t,n,e){return 0===t||n===e?n:t*(e-n)+n}function w(t,n,e){var r=b(t,n,e);return r<=0?0:r}function x(t,n,e){return 0===t?n:1===t?e:{x:b(t,n.x,e.x),y:b(t,n.y,e.y)}}function A(t,n,e){return 0===t?n:1===t?e:{x:w(t,n.x,e.x),y:w(t,n.y,e.y)}}function k(t,n,e){var r=function(t,n,e){return Math.round(b(t,n,e))}(t,n,e);return r<=0?0:r>=255?255:r}function _(t,n,e){return 0===t?n:1===t?e:{r:k(t,n.r,e.r),g:k(t,n.g,e.g),b:k(t,n.b,e.b),a:b(t,null==n.a?1:n.a,null==e.a?1:e.a)}}function S(t,n,e){if(0===t)return n;if(1===t)return e;var r=n.length;if(r!==e.length)return m(t,n,e);for(var i=[],u=0;u<r;u++)i.push(_(t,n[u],e[u]));return i}function M(t,n,e){var r=n.length;if(r!==e.length)return m(t,n,e);for(var i=new Array(r),u=0;u<r;u++)i[u]=b(t,n[u],e[u]);return i}function O(t,n){for(var e=[],r=0;r<t;r++)e.push(n);return e}function E(t,n){if(--n<=0)return t;var e=(t=Object.assign([],t)).length;do{for(var r=0;r<e;r++)t.push(t[r])}while(--n>0);return t}var B,I=function(){function t(e){n(this,t),this.list=e,this.length=e.length}return r(t,[{key:"setAttribute",value:function(t,n){for(var e=this.list,r=0;r<this.length;r++)e[r].setAttribute(t,n)}},{key:"removeAttribute",value:function(t){for(var n=this.list,e=0;e<this.length;e++)n[e].removeAttribute(t)}},{key:"style",value:function(t,n){for(var e=this.list,r=0;r<this.length;r++)e[r].style[t]=n}}]),t}(),j=/-./g,P=function(t,n){return n.toUpperCase()};function T(t){return"function"==typeof t?t:m}function F(t){return t?"function"==typeof t?t:Array.isArray(t)?function(t){var n=arguments.length>1&&void 0!==arguments[1]?arguments[1]:f;if(!Array.isArray(t))return n;switch(t.length){case 1:return y(t[0])||n;case 2:return y(t[0],t[1])||n;case 4:return h(t[0],t[1],t[2],t[3])||n}return n}(t,null):function(t,n){var e=arguments.length>2&&void 0!==arguments[2]?arguments[2]:f;switch(t){case"linear":return f;case"steps":return y(n.steps||1,n.jump||0)||e;case"bezier":case"cubic-bezier":return h(n.x1||0,n.y1||0,n.x2||0,n.y2||0)||e}return e}(t.type,t.value,null):null}function R(t,n,e){var r=arguments.length>3&&void 0!==arguments[3]&&arguments[3],i=n.length-1;if(t<=n[0].t)return r?[0,0,n[0].v]:n[0].v;if(t>=n[i].t)return r?[i,1,n[i].v]:n[i].v;var u,o=n[0],a=null;for(u=1;u<=i;u++){if(!(t>n[u].t)){a=n[u];break}o=n[u]}return null==a?r?[i,1,n[i].v]:n[i].v:o.t===a.t?r?[u,1,a.v]:a.v:(t=(t-o.t)/(a.t-o.t),o.e&&(t=o.e(t)),r?[u,t,e(t,o.v,a.v)]:e(t,o.v,a.v))}function C(t,n){var e=arguments.length>2&&void 0!==arguments[2]?arguments[2]:null;return t&&t.length?"function"!=typeof n?null:("function"!=typeof e&&(e=null),function(r){var i=R(r,t,n);return null!=i&&e&&(i=e(i)),i}):null}function N(t,n){return t.t-n.t}function q(n,e,r,i,u){var o,a="@"===r[0],l="#"===r[0],s=B[r],f=m;switch(a?(o=r.substr(1),r=o.replace(j,P)):l&&(r=r.substr(1)),t(s)){case"function":if(f=s(i,u,R,F,r,a,e,n),l)return f;break;case"string":f=C(i,T(s));break;case"object":if((f=C(i,T(s.i),s.f))&&"function"==typeof s.u)return s.u(e,f,r,a,n)}return f?function(t,n,e){var r=arguments.length>3&&void 0!==arguments[3]&&arguments[3];if(r)return t instanceof I?function(r){return t.style(n,e(r))}:function(r){return t.style[n]=e(r)};if(Array.isArray(n)){var i=n.length;return function(r){var u=e(r);if(null==u)for(var o=0;o<i;o++)t[o].removeAttribute(n);else for(var a=0;a<i;a++)t[a].setAttribute(n,u)}}return function(r){var i=e(r);null==i?t.removeAttribute(n):t.setAttribute(n,i)}}(e,r,f,a):null}function V(n,e,r,i){if(!i||"object"!==t(i))return null;var u=null,o=null;return Array.isArray(i)?o=function(t){if(!t||!t.length)return null;for(var n=0;n<t.length;n++)t[n].e&&(t[n].e=F(t[n].e));return t.sort(N)}(i):(o=i.keys,u=i.data||null),o?q(n,e,r,o,u):null}function L(t,n,e){if(!e)return null;var r=[];for(var i in e)if(e.hasOwnProperty(i)){var u=V(t,n,i,e[i]);u&&r.push(u)}return r.length?r:null}function z(t,n){if(!n.duration||n.duration<0)return null;var e=function(t,n){if(!n)return null;var e=[];if(Array.isArray(n))for(var r=n.length,i=0;i<r;i++){var u=n[i];if(2===u.length){var o=null;if("string"==typeof u[0])o=t.getElementById(u[0]);else if(Array.isArray(u[0])){o=[];for(var a=0;a<u[0].length;a++)if("string"==typeof u[0][a]){var l=t.getElementById(u[0][a]);l&&o.push(l)}o=o.length?1===o.length?o[0]:new I(o):null}if(o){var s=L(t,o,u[1]);s&&(e=e.concat(s))}}}else for(var f in n)if(n.hasOwnProperty(f)){var c=t.getElementById(f);if(c){var h=L(t,c,n[f]);h&&(e=e.concat(h))}}return e.length?e:null}(t,n.elements);return e?function(t,n){var e=arguments.length>2&&void 0!==arguments[2]?arguments[2]:1/0,r=arguments.length>3&&void 0!==arguments[3]?arguments[3]:1,i=arguments.length>4&&void 0!==arguments[4]&&arguments[4],u=arguments.length>5&&void 0!==arguments[5]?arguments[5]:1,o=t.length,a=r>0?n:0;i&&e%2==0&&(a=n-a);var l=null;return function(s,f){var c=s%n,h=1+(s-c)/n;f*=r,i&&h%2==0&&(f=-f);var v=!1;if(h>e)c=a,v=!0,-1===u&&(c=r>0?0:n);else if(f<0&&(c=n-c),c===l)return!1;l=c;for(var d=0;d<o;d++)t[d](c);return v}}(e,n.duration,n.iterations||1/0,n.direction||1,!!n.alternate,n.fill||1):null}var D=function(){function t(e,r){var i=arguments.length>2&&void 0!==arguments[2]?arguments[2]:{};n(this,t),this._id=0,this._running=!1,this._rollingBack=!1,this._animations=e,this.duration=r.duration,this.alternate=r.alternate,this.fill=r.fill,this.iterations=r.iterations,this.direction=i.direction||1,this.speed=i.speed||1,this.fps=i.fps||100,this.offset=i.offset||0,this.rollbackStartOffset=0}return r(t,[{key:"_rollback",value:function(){var t=this,n=1/0,e=null;this.rollbackStartOffset=this.offset,this._rollingBack||(this._rollingBack=!0,this._running=!0);this._id=window.requestAnimationFrame((function r(i){if(t._rollingBack){null==e&&(e=i);var u=i-e,o=t.rollbackStartOffset-u,a=Math.round(o*t.speed);if(a>t.duration&&n!=1/0){var l=!!t.alternate&&a/t.duration%2>1,s=a%t.duration;a=(s+=l?t.duration:0)||t.duration}var f=t.fps?1e3/t.fps:0,c=Math.max(0,a);if(c<n-f){t.offset=c,n=c;for(var h=t._animations,v=h.length,d=0;d<v;d++)h[d](c,t.direction)}var y=!1;if(t.iterations>0&&-1===t.fill){var g=t.iterations*t.duration,p=g==a;a=p?0:a,t.offset=p?0:t.offset,y=a>g}a>0&&t.offset>=a&&!y?t._id=window.requestAnimationFrame(r):t.stop()}}))}},{key:"_start",value:function(){var t=this,n=arguments.length>0&&void 0!==arguments[0]?arguments[0]:0,e=-1/0,r=null,i={},u=function u(o){t._running=!0,null==r&&(r=o);var a=Math.round((o-r+n)*t.speed),l=t.fps?1e3/t.fps:0;if(a>e+l&&!t._rollingBack){t.offset=a,e=a;for(var s=t._animations,f=s.length,c=0,h=0;h<f;h++)i[h]?c++:(i[h]=s[h](a,t.direction),i[h]&&c++);if(c===f)return void t._stop()}t._id=window.requestAnimationFrame(u)};this._id=window.requestAnimationFrame(u)}},{key:"_stop",value:function(){this._id&&window.cancelAnimationFrame(this._id),this._running=!1,this._rollingBack=!1}},{key:"play",value:function(){!this._rollingBack&&this._running||(this._rollingBack=!1,this.rollbackStartOffset>this.duration&&(this.offset=this.rollbackStartOffset-(this.rollbackStartOffset-this.offset)%this.duration,this.rollbackStartOffset=0),this._start(this.offset))}},{key:"stop",value:function(){this._stop(),this.offset=0,this.rollbackStartOffset=0;var t=this.direction,n=this._animations;window.requestAnimationFrame((function(){for(var e=0;e<n.length;e++)n[e](0,t)}))}},{key:"reachedToEnd",value:function(){return this.iterations>0&&this.offset>=this.iterations*this.duration}},{key:"restart",value:function(){this._stop(),this.offset=0,this._start()}},{key:"pause",value:function(){this._stop()}},{key:"reverse",value:function(){this.direction=-this.direction}}],[{key:"build",value:function(n,e){return(n=function(t,n){if(B=n,!t||!t.root||!Array.isArray(t.animations))return null;for(var e=document.getElementsByTagName("svg"),r=!1,i=0;i<e.length;i++)if(e[i].id===t.root&&!e[i].svgatorAnimation){(r=e[i]).svgatorAnimation=!0;break}if(!r)return null;var u=t.animations.map((function(t){return z(r,t)})).filter((function(t){return!!t}));return u.length?{element:r,animations:u,animationSettings:t.animationSettings,options:t.options||void 0}:null}(n,e))?{el:n.element,options:n.options||{},player:new t(n.animations,n.animationSettings,n.options)}:null}}]),t}();!function(){for(var t=0,n=["ms","moz","webkit","o"],e=0;e<n.length&&!window.requestAnimationFrame;++e)window.requestAnimationFrame=window[n[e]+"RequestAnimationFrame"],window.cancelAnimationFrame=window[n[e]+"CancelAnimationFrame"]||window[n[e]+"CancelRequestAnimationFrame"];window.requestAnimationFrame||(window.requestAnimationFrame=function(n){var e=Date.now(),r=Math.max(0,16-(e-t)),i=window.setTimeout((function(){n(e+r)}),r);return t=e+r,i},window.cancelAnimationFrame=window.clearTimeout)}();var U=function(t,n){var e=!1,r=null;return function(i){e&&clearTimeout(e),e=setTimeout((function(){return function(){for(var i=0,u=window.innerHeight,o=0,a=window.innerWidth,l=t.parentNode;l instanceof Element;){var s=window.getComputedStyle(l);if("visible"!==s.overflowY||"visible"!==s.overflowX){var f=l.getBoundingClientRect();"visible"!==s.overflowY&&(i=Math.max(i,f.top),u=Math.min(u,f.bottom)),"visible"!==s.overflowX&&(o=Math.max(o,f.left),a=Math.min(a,f.right))}if(l===l.parentNode)break;l=l.parentNode}e=!1;var c=t.getBoundingClientRect(),h=Math.min(c.height,Math.max(0,i-c.top)),v=Math.min(c.height,Math.max(0,c.bottom-u)),d=Math.min(c.width,Math.max(0,o-c.left)),y=Math.min(c.width,Math.max(0,c.right-a)),g=(c.height-h-v)/c.height,p=(c.width-d-y)/c.width,m=Math.round(g*p*100);null!==r&&r===m||(r=m,n(m))}()}),100)}},W=function(){function t(e,r,i){n(this,t),r=Math.max(1,r||1),r=Math.min(r,100),this.el=e,this.onTresholdChange=i&&i.call?i:function(){},this.tresholdPercent=r||1,this.currentVisibility=null,this.visibilityCalculator=U(e,this.onVisibilityUpdate.bind(this)),this.bindScrollWatchers(),this.visibilityCalculator()}return r(t,[{key:"bindScrollWatchers",value:function(){for(var t=this.el.parentNode;t&&(t.addEventListener("scroll",this.visibilityCalculator),t!==t.parentNode&&t!==document);)t=t.parentNode}},{key:"onVisibilityUpdate",value:function(t){var n=this.currentVisibility>=this.tresholdPercent,e=t>=this.tresholdPercent;if(null===this.currentVisibility||n!==e)return this.currentVisibility=t,void this.onTresholdChange(e);this.currentVisibility=t}}]),t}(),Y=/\.0+$/g;function G(t){return Number.isInteger(t)?t+"":t.toFixed(6).replace(Y,"")}function H(t){var n=arguments.length>1&&void 0!==arguments[1]?arguments[1]:" ";return t&&t.length?t.map(G).join(n):""}function Q(t){return G(t.x)+","+G(t.y)}function X(t){return t?null==t.a||t.a>=1?"rgb("+t.r+","+t.g+","+t.b+")":"rgba("+t.r+","+t.g+","+t.b+","+t.a+")":"transparent"}var $={f:null,i:A,u:function(t,n){return function(e){var r=n(e);t.setAttribute("rx",G(r.x)),t.setAttribute("ry",G(r.y))}}},Z={f:null,i:function(t,n,e){return 0===t?n:1===t?e:{width:w(t,n.width,e.width),height:w(t,n.height,e.height)}},u:function(t,n){return function(e){var r=n(e);t.setAttribute("width",G(r.width)),t.setAttribute("height",G(r.height))}}},J=Math.sin,K=Math.cos,tt=Math.acos,nt=Math.asin,et=Math.tan,rt=Math.atan2,it=Math.PI/180,ut=180/Math.PI,ot=Math.sqrt,at=function(){function t(){var e=arguments.length>0&&void 0!==arguments[0]?arguments[0]:1,r=arguments.length>1&&void 0!==arguments[1]?arguments[1]:0,i=arguments.length>2&&void 0!==arguments[2]?arguments[2]:0,u=arguments.length>3&&void 0!==arguments[3]?arguments[3]:1,o=arguments.length>4&&void 0!==arguments[4]?arguments[4]:0,a=arguments.length>5&&void 0!==arguments[5]?arguments[5]:0;n(this,t),this.m=[e,r,i,u,o,a],this.i=null,this.w=null,this.s=null}return r(t,[{key:"determinant",get:function(){var t=this.m;return t[0]*t[3]-t[1]*t[2]}},{key:"isIdentity",get:function(){if(null===this.i){var t=this.m;this.i=1===t[0]&&0===t[1]&&0===t[2]&&1===t[3]&&0===t[4]&&0===t[5]}return this.i}},{key:"point",value:function(t,n){var e=this.m;return{x:e[0]*t+e[2]*n+e[4],y:e[1]*t+e[3]*n+e[5]}}},{key:"translateSelf",value:function(){var t=arguments.length>0&&void 0!==arguments[0]?arguments[0]:0,n=arguments.length>1&&void 0!==arguments[1]?arguments[1]:0;if(!t&&!n)return this;var e=this.m;return e[4]+=e[0]*t+e[2]*n,e[5]+=e[1]*t+e[3]*n,this.w=this.s=this.i=null,this}},{key:"rotateSelf",value:function(){var t=arguments.length>0&&void 0!==arguments[0]?arguments[0]:0;if(t%=360){var n=J(t*=it),e=K(t),r=this.m,i=r[0],u=r[1];r[0]=i*e+r[2]*n,r[1]=u*e+r[3]*n,r[2]=r[2]*e-i*n,r[3]=r[3]*e-u*n,this.w=this.s=this.i=null}return this}},{key:"scaleSelf",value:function(){var t=arguments.length>0&&void 0!==arguments[0]?arguments[0]:1,n=arguments.length>1&&void 0!==arguments[1]?arguments[1]:1;if(1!==t||1!==n){var e=this.m;e[0]*=t,e[1]*=t,e[2]*=n,e[3]*=n,this.w=this.s=this.i=null}return this}},{key:"skewSelf",value:function(t,n){if(n%=360,(t%=360)||n){var e=this.m,r=e[0],i=e[1],u=e[2],o=e[3];t&&(t=et(t*it),e[2]+=r*t,e[3]+=i*t),n&&(n=et(n*it),e[0]+=u*n,e[1]+=o*n),this.w=this.s=this.i=null}return this}},{key:"resetSelf",value:function(){var t=arguments.length>0&&void 0!==arguments[0]?arguments[0]:1,n=arguments.length>1&&void 0!==arguments[1]?arguments[1]:0,e=arguments.length>2&&void 0!==arguments[2]?arguments[2]:0,r=arguments.length>3&&void 0!==arguments[3]?arguments[3]:1,i=arguments.length>4&&void 0!==arguments[4]?arguments[4]:0,u=arguments.length>5&&void 0!==arguments[5]?arguments[5]:0,o=this.m;return o[0]=t,o[1]=n,o[2]=e,o[3]=r,o[4]=i,o[5]=u,this.w=this.s=this.i=null,this}},{key:"recomposeSelf",value:function(){var t=arguments.length>0&&void 0!==arguments[0]?arguments[0]:null,n=arguments.length>1&&void 0!==arguments[1]?arguments[1]:null,e=arguments.length>2&&void 0!==arguments[2]?arguments[2]:null,r=arguments.length>3&&void 0!==arguments[3]?arguments[3]:null,i=arguments.length>4&&void 0!==arguments[4]?arguments[4]:null;return this.isIdentity||this.resetSelf(),t&&(t.x||t.y)&&this.translateSelf(t.x,t.y),n&&this.rotateSelf(n),e&&(e.x&&this.skewSelf(e.x,0),e.y&&this.skewSelf(0,e.y)),!r||1===r.x&&1===r.y||this.scaleSelf(r.x,r.y),i&&(i.x||i.y)&&this.translateSelf(i.x,i.y),this}},{key:"decompose",value:function(){var t=arguments.length>0&&void 0!==arguments[0]?arguments[0]:0,n=arguments.length>1&&void 0!==arguments[1]?arguments[1]:0,e=this.m,r=e[0]*e[0]+e[1]*e[1],i=[[e[0],e[1]],[e[2],e[3]]],u=ot(r);if(0===u)return{origin:{x:e[4],y:e[5]},translate:{x:t,y:n},scale:{x:0,y:0},skew:{x:0,y:0},rotate:0};i[0][0]/=u,i[0][1]/=u;var o=e[0]*e[3]-e[1]*e[2]<0;o&&(u=-u);var a=i[0][0]*i[1][0]+i[0][1]*i[1][1];i[1][0]-=i[0][0]*a,i[1][1]-=i[0][1]*a;var l=ot(i[1][0]*i[1][0]+i[1][1]*i[1][1]);if(0===l)return{origin:{x:e[4],y:e[5]},translate:{x:t,y:n},scale:{x:u,y:0},skew:{x:0,y:0},rotate:0};i[1][0]/=l,i[1][1]/=l,a/=l;var s=0;return i[1][1]<0?(s=tt(i[1][1])*ut,i[0][1]<0&&(s=360-s)):s=nt(i[0][1])*ut,o&&(s=-s),a=rt(a,ot(i[0][0]*i[0][0]+i[0][1]*i[0][1]))*ut,o&&(a=-a),{origin:{x:e[4],y:e[5]},translate:{x:t,y:n},scale:{x:u,y:l},skew:{x:a,y:0},rotate:s}}},{key:"toString",value:function(){return null===this.s&&(this.s="matrix("+this.m.map(st).join(" ")+")"),this.s}}]),t}(),lt=/\.0+$/;function st(t){return Number.isInteger(t)?t:t.toFixed(14).replace(lt,"")}function ft(t,n,e){return t+(n-t)*e}function ct(t,n,e){var r=arguments.length>3&&void 0!==arguments[3]&&arguments[3],i={x:ft(t.x,n.x,e),y:ft(t.y,n.y,e)};return r&&(i.a=ht(t,n)),i}function ht(t,n){return Math.atan2(n.y-t.y,n.x-t.x)}Object.freeze({M:2,L:2,Z:0,H:1,V:1,C:6,Q:4,T:2,S:4,A:7});var vt={},dt=null;function yt(n){var e=function(){if(dt)return dt;if("object"!==("undefined"==typeof document?"undefined":t(document)))return{};var n=document.createElementNS("http://www.w3.org/2000/svg","svg");return n.style.position="absolute",n.style.opacity="0.01",n.style.zIndex="-9999",n.style.left="-9999px",n.style.width="1px",n.style.height="1px",dt={svg:n}}().svg;if(!e)return function(t){return null};var r=document.createElementNS(e.namespaceURI,"path");r.setAttributeNS(null,"d",n),r.setAttributeNS(null,"fill","none"),r.setAttributeNS(null,"stroke","none"),e.appendChild(r);var i=r.getTotalLength();return function(t){var n=r.getPointAtLength(i*t);return{x:n.x,y:n.y}}}function gt(t){return vt[t]?vt[t]:vt[t]=yt(t)}function pt(t,n,e,r){if(!t||!r)return!1;var i=["M",t.x,t.y];if(n&&e&&(i.push("C"),i.push(n.x),i.push(n.y),i.push(e.x),i.push(e.y)),n?!e:e){var u=n||e;i.push("Q"),i.push(u.x),i.push(u.y)}return n||e||i.push("L"),i.push(r.x),i.push(r.y),i.join(" ")}function mt(t,n,e,r){var i=arguments.length>4&&void 0!==arguments[4]?arguments[4]:1,u=pt(t,n,e,r),o=gt(u);try{return o(i)}catch(t){return null}}function bt(t,n,e,r){var i=1-r;return i*i*t+2*i*r*n+r*r*e}function wt(t,n,e,r){return 2*(1-r)*(n-t)+2*r*(e-n)}function xt(t,n,e,r){var i=arguments.length>4&&void 0!==arguments[4]&&arguments[4],u=mt(t,n,null,e,r);return u||(u={x:bt(t.x,n.x,e.x,r),y:bt(t.y,n.y,e.y,r)}),i&&(u.a=At(t,n,e,r)),u}function At(t,n,e,r){return Math.atan2(wt(t.y,n.y,e.y,r),wt(t.x,n.x,e.x,r))}function kt(t,n,e,r,i){var u=i*i;return i*u*(r-t+3*(n-e))+3*u*(t+e-2*n)+3*i*(n-t)+t}function _t(t,n,e,r,i){var u=1-i;return 3*(u*u*(n-t)+2*u*i*(e-n)+i*i*(r-e))}function St(t,n,e,r,i){var u=arguments.length>5&&void 0!==arguments[5]&&arguments[5],o=mt(t,n,e,r,i);return o||(o={x:kt(t.x,n.x,e.x,r.x,i),y:kt(t.y,n.y,e.y,r.y,i)}),u&&(o.a=Mt(t,n,e,r,i)),o}function Mt(t,n,e,r,i){return Math.atan2(_t(t.y,n.y,e.y,r.y,i),_t(t.x,n.x,e.x,r.x,i))}function Ot(t,n,e){var r=arguments.length>3&&void 0!==arguments[3]&&arguments[3];if(Bt(n)){if(It(e))return xt(n,e.start,e,t,r)}else if(Bt(e)){if(n.end)return xt(n,n.end,e,t,r)}else{if(n.end)return e.start?St(n,n.end,e.start,e,t,r):xt(n,n.end,e,t,r);if(e.start)return xt(n,e.start,e,t,r)}return ct(n,e,t,r)}function Et(t,n,e){var r=Ot(t,n,e,!0);return r.a=function(t){var n=arguments.length>1&&void 0!==arguments[1]&&arguments[1];return n?t+Math.PI:t}(r.a)/p,r}function Bt(t){return!t.type||"corner"===t.type}function It(t){return null!=t.start&&!Bt(t)}var jt=new at;var Pt={f:function(t){return t?t.join(" "):""},i:function(n,e,r){if(0===n)return e;if(1===n)return r;var i=e.length;if(i!==r.length)return m(n,e,r);for(var u,o=new Array(i),a=0;a<i;a++){if((u=t(e[a]))!==t(r[a]))return m(n,e,r);if("number"===u)o[a]=b(n,e[a],r[a]);else{if(e[a]!==r[a])return m(n,e,r);o[a]=e[a]}}return o}},Tt={f:null,i:M,u:function(t,n){return function(e){var r=n(e);t.setAttribute("x1",G(r[0])),t.setAttribute("y1",G(r[1])),t.setAttribute("x2",G(r[2])),t.setAttribute("y2",G(r[3]))}}},Ft={f:G,i:b},Rt={f:G,i:function(t,n,e){var r=b(t,n,e);return r<=0?0:r>=1?1:r}},Ct={f:function(t){var n=arguments.length>1&&void 0!==arguments[1]?arguments[1]:" ";return t&&t.length>0&&(t=t.map((function(t){return Math.floor(1e4*t)/1e4}))),H(t,n)},i:function(t,n,e){var r,i,u,o=n.length,a=e.length;if(o!==a)if(0===o)n=O(o=a,0);else if(0===a)a=o,e=O(o,0);else{var l=(u=(r=o)*(i=a)/function(t,n){for(var e;n;)e=n,n=t%n,t=e;return t||1}(r,i))<0?-u:u;n=E(n,Math.floor(l/o)),e=E(e,Math.floor(l/a)),o=a=l}for(var s=[],f=0;f<o;f++)s.push(g(w(t,n[f],e[f]),6));return s}};function Nt(t,n,e,r,i,u,o,a){return n=function(t,n,e){for(var r,i,u,o=t.length-1,a={},l=0;l<=o;l++)(r=t[l]).e&&(r.e=n(r.e)),r.v&&"g"===(i=r.v).t&&i.r&&(u=e.getElementById(i.r))&&(a[i.r]=u.querySelectorAll("stop"));return a}(t,r,a),function(r){var i,u=e(r,t,qt);return u?"c"===u.t?X(u.v):"g"===u.t?(n[u.r]&&function(t,n){for(var e=0,r=t.length;e<r;e++)t[e].setAttribute("stop-color",X(n[e]))}(n[u.r],u.v),(i=u.r)?"url(#"+i+")":"none"):"none":"none"}}function qt(t,n,e){if(0===t)return n;if(1===t)return e;if(n&&e){var r=n.t;if(r===e.t)switch(n.t){case"c":return{t:r,v:_(t,n.v,e.v)};case"g":if(n.r===e.r)return{t:r,v:S(t,n.v,e.v),r:n.r}}}return m(t,n,e)}var Vt={blur:A,brightness:w,contrast:w,"drop-shadow":function(t,n,e){return 0===t?n:1===t?e:{blur:A(t,n.blur,e.blur),offset:x(t,n.offset,e.offset),color:_(t,n.color,e.color)}},grayscale:w,"hue-rotate":b,invert:w,opacity:w,saturate:w,sepia:w};function Lt(t,n,e){if(0===t)return n;if(1===t)return e;var r=n.length;if(r!==e.length)return m(t,n,e);for(var i,u=[],o=0;o<r;o++){if(n[o].type!==e[o].type)return n;if(!(i=Vt[n[o].type]))return m(t,n,e);u.push({type:n.type,value:i(t,n[o].value,e[o].value)})}return u}var zt={blur:function(t){return t?function(n){t.setAttribute("stdDeviation",Q(n))}:null},brightness:function(t,n,e){return(t=Ut(e,n))?function(n){n=G(n),t.map((function(t){return t.setAttribute("slope",n)}))}:null},contrast:function(t,n,e){return(t=Ut(e,n))?function(n){var e=G((1-n)/2);n=G(n),t.map((function(t){t.setAttribute("slope",n),t.setAttribute("intercept",e)}))}:null},"drop-shadow":function(t,n,e){var r=e.getElementById(n+"-blur");if(!r)return null;var i=e.getElementById(n+"-offset");if(!i)return null;var u=e.getElementById(n+"-flood");return u?function(t){r.setAttribute("stdDeviation",Q(t.blur)),i.setAttribute("dx",G(t.offset.x)),i.setAttribute("dy",G(t.offset.y)),u.setAttribute("flood-color",X(t.color))}:null},grayscale:function(t){return t?function(n){t.setAttribute("values",H(function(t){return[.2126+.7874*(t=1-t),.7152-.7152*t,.0722-.0722*t,0,0,.2126-.2126*t,.7152+.2848*t,.0722-.0722*t,0,0,.2126-.2126*t,.7152-.7152*t,.0722+.9278*t,0,0,0,0,0,1,0]}(n)))}:null},"hue-rotate":function(t){return t?function(n){return t.setAttribute("values",G(n))}:null},invert:function(t,n,e){return(t=Ut(e,n))?function(n){n=G(n)+" "+G(1-n),t.map((function(t){return t.setAttribute("tableValues",n)}))}:null},opacity:function(t,n,e){return(t=e.getElementById(n+"-A"))?function(n){return t.setAttribute("tableValues","0 "+G(n))}:null},saturate:function(t){return t?function(n){return t.setAttribute("values",G(n))}:null},sepia:function(t){return t?function(n){return t.setAttribute("values",H(function(t){return[.393+.607*(t=1-t),.769-.769*t,.189-.189*t,0,0,.349-.349*t,.686+.314*t,.168-.168*t,0,0,.272-.272*t,.534-.534*t,.131+.869*t,0,0,0,0,0,1,0]}(n)))}:null}};var Dt=["R","G","B"];function Ut(t,n){var e=Dt.map((function(e){return t.getElementById(n+"-"+e)||null}));return-1!==e.indexOf(null)?null:e}var Wt={fill:Nt,"fill-opacity":Rt,stroke:Nt,"stroke-opacity":Rt,"stroke-width":Ft,"stroke-dashoffset":{f:G,i:b},"stroke-dasharray":Ct,opacity:Rt,transform:function(n,e,r,i){if(!(n=function(n,e){if(!n||"object"!==t(n))return null;var r=!1;for(var i in n)n.hasOwnProperty(i)&&(n[i]&&n[i].length?(n[i].forEach((function(t){t.e&&(t.e=e(t.e))})),r=!0):delete n[i]);return r?n:null}(n,i)))return null;var u=function(t,i,u){var o=arguments.length>3&&void 0!==arguments[3]?arguments[3]:null;return n[t]?r(i,n[t],u):e&&e[t]?e[t]:o};return e&&e.a&&n.o?function(t){var e=r(t,n.o,Et);return jt.recomposeSelf(e,u("r",t,b,0)+e.a,u("k",t,x),u("s",t,x),u("t",t,x)).toString()}:function(t){return jt.recomposeSelf(u("o",t,Ot,null),u("r",t,b,0),u("k",t,x),u("s",t,x),u("t",t,x)).toString()}},"#filter":function(t,n,e,r,i,u,o,a){if(!n.items||!t||!t.length)return null;var l=function(t,n){var e=(t=t.map((function(t){return t&&zt[t[0]]?(n.getElementById(t[1]),zt[t[0]](n.getElementById(t[1]),t[1],n)):null}))).length;return function(n){for(var r=0;r<e;r++)t[r]&&t[r](n[r].value)}}(n.items,a);return l?(t=function(t,n){return t.map((function(t){return t.e=n(t.e),t}))}(t,r),function(n){l(e(n,t,Lt))}):null},"#line":Tt,points:{f:H,i:M},d:Pt,r:Ft,"#size":Z,"#radius":$,_:function(t,n){if(Array.isArray(t))for(var e=0;e<t.length;e++)this[t[e]]=n;else this[t]=n}};return function(t){!function(t,n){if("function"!=typeof n&&null!==n)throw new TypeError("Super expression must either be null or a function");t.prototype=Object.create(n&&n.prototype,{constructor:{value:t,writable:!0,configurable:!0}}),n&&u(t,n)}(o,t);var e=a(o);function o(){return n(this,o),e.apply(this,arguments)}return r(o,null,[{key:"build",value:function(t){var n=l(i(o),"build",this).call(this,t,Wt),e=n.el,r=n.options,u=n.player;return function(t,n,e){if("click"===e.start){return void n.addEventListener("click",(function(){switch(e.click){case"freeze":return!t._running&&t.reachedToEnd()&&(t.offset=0),t._running?t.pause():t.play();case"restart":return t.offset>0?t.restart():t.play();case"reverse":var n=!t._rollingBack&&t._running,r=t.reachedToEnd();return n||r&&1===t.fill?(t.pause(),r&&(t.offset=t.duration-1),t._rollback()):r?t.restart():t.play();case"none":default:return!t._running&&t.offset?t.restart():t.play()}}))}if("hover"===e.start)return n.addEventListener("mouseenter",(function(){return t.reachedToEnd()?t.restart():t.play()})),void n.addEventListener("mouseleave",(function(){switch(e.hover){case"freeze":return t.pause();case"reset":return t.stop();case"reverse":return t.pause(),t._rollback();case"none":default:return}}));if("scroll"===e.start)return void new W(n,e.scroll||25,(function(n){n?t.reachedToEnd()?t.restart():t.play():t.pause()}));t.play()}(u,e,r),u}}]),o}(D)}));
__SVGATOR_PLAYER__.build({"root":"e8wc6j81kr21","animations":[{"duration":2500,"direction":1,"iterations":1,"fill":1,"alternate":false,"elements":{"e8wc6j81kr26":{"transform":{"data":{"o":{"x":206.55014801000002,"y":161.699999235,"type":"corner"},"t":{"x":-206.55014801000002,"y":-161.699999235}},"keys":{"r":[{"t":0,"v":0,"e":[0.42,0,0.58,1]},{"t":2500,"v":360,"e":[0.42,0,0.58,1]}]}}},"e8wc6j81kr236":{"transform":{"data":{"o":{"x":202.9,"y":161,"type":"corner"},"t":{"x":-202.9,"y":-161}},"keys":{"r":[{"t":0,"v":0,"e":[0.42,0,0.58,1]},{"t":2500,"v":-360,"e":[0.42,0,0.58,1]}]}}},"e8wc6j81kr257":{"transform":{"data":{"o":{"x":206.55014801000002,"y":161,"type":"corner"},"t":{"x":-0.05014801000001512,"y":-86.7}},"keys":{"r":[{"t":0,"v":0},{"t":2500,"v":720,"e":[0.42,0,0.58,1]}]}}}}}],"options":{"start":"scroll","hover":"freeze","click":"freeze","scroll":50,"font":"embed","exportedIds":"unique","title":"xxxxxxxxxxxxxxxxxxxx"},"animationSettings":{"duration":2500,"direction":1,"iterations":1,"fill":1,"alternate":false}})]]></script></svg>