<svg xmlns="http://www.w3.org/2000/svg" width="1149" height="541" viewBox="0 0 1149 541" fill="none" class="">
<path d="M1149 192H930C923.373 192 918 186.627 918 180V91C918 84.3726 912.627 79 906 79H695C688.373 79 683 84.3726 683 91V180C683 186.627 677.627 192 671 192H465C458.373 192 453 186.627 453 180V91C453 84.3726 447.627 79 441 79H229C222.373 79 217 84.3726 217 91V180C217 186.627 211.627 192 205 192H146.5H113C106.373 192 101 197.373 101 204V441C101 447.627 106.373 453 113 453H209H210C216.627 453 222 447.627 222 441V401C222 394.373 227.373 389 234 389H291H859" stroke="#B2C2D6" stroke-width="2"></path>
<g filter="url(#filter0_d)">
<path d="M1114 102H952C945.925 102 941 106.925 941 113V247C941 253.075 945.925 258 952 258H1114C1120.08 258 1125 253.075 1125 247V113C1125 106.925 1120.08 102 1114 102Z" fill="white" stroke="#20C5BA" stroke-width="2"></path>
</g>
<g filter="url(#filter1_d)">
<path d="M650 102H488C481.925 102 477 106.925 477 113V247C477 253.075 481.925 258 488 258H650C656.075 258 661 253.075 661 247V113C661 106.925 656.075 102 650 102Z" fill="white" stroke="#20C5BA" stroke-width="2"></path>
</g>
<g filter="url(#filter2_d)">
<path d="M184 102H22C15.9249 102 11 106.925 11 113V247C11 253.075 15.9249 258 22 258H184C190.075 258 195 253.075 195 247V113C195 106.925 190.075 102 184 102Z" fill="white" stroke="#20C5BA" stroke-width="2"></path>
</g>
<g filter="url(#filter3_d)">
<path d="M184 354H22C15.9249 354 11 358.925 11 365V519C11 525.075 15.9249 530 22 530H184C190.075 530 195 525.075 195 519V365C195 358.925 190.075 354 184 354Z" fill="white" stroke="#20C5BA" stroke-width="2"></path>
</g>
<g filter="url(#filter4_d)">
<path d="M882 11H720C713.925 11 709 15.9249 709 22V156C709 162.075 713.925 167 720 167H882C888.075 167 893 162.075 893 156V22C893 15.9249 888.075 11 882 11Z" fill="white" stroke="#20C5BA" stroke-width="2"></path>
</g>
<g filter="url(#filter5_d)">
<path d="M418 11H256C249.925 11 245 15.9249 245 22V156C245 162.075 249.925 167 256 167H418C424.075 167 429 162.075 429 156V22C429 15.9249 424.075 11 418 11Z" fill="white" stroke="#20C5BA" stroke-width="2"></path>
</g>
<g filter="url(#filter6_d)">
<path d="M556 305H394C387.925 305 383 309.925 383 316V450C383 456.075 387.925 461 394 461H556C562.075 461 567 456.075 567 450V316C567 309.925 562.075 305 556 305Z" fill="white" stroke="#20C5BA" stroke-width="2"></path>
</g>
<g filter="url(#filter7_d)">
<path d="M882 305H720C713.925 305 709 309.925 709 316V450C709 456.075 713.925 461 720 461H882C888.075 461 893 456.075 893 450V316C893 309.925 888.075 305 882 305Z" fill="white" stroke="#20C5BA" stroke-width="2"></path>
</g>
<path d="M912 139L918 133L924 139" stroke="#20C5BA" stroke-width="2" stroke-linecap="round" stroke-linejoin="round"></path>
<path d="M447 139L453 133L459 139" stroke="#20C5BA" stroke-width="2" stroke-linecap="round" stroke-linejoin="round"></path>
<path d="M223 133L217 139L211 133" stroke="#20C5BA" stroke-width="2" stroke-linecap="round" stroke-linejoin="round"></path>
<path d="M107 303L101 309L95 303" stroke="#20C5BA" stroke-width="2" stroke-linecap="round" stroke-linejoin="round"></path>
<path d="M216 423L222 417L228 423" stroke="#20C5BA" stroke-width="2" stroke-linecap="round" stroke-linejoin="round"></path>
<path d="M631 383L637 389L631 395" stroke="#20C5BA" stroke-width="2" stroke-linecap="round" stroke-linejoin="round"></path>
<path d="M677 133L683 139L689 133" stroke="#20C5BA" stroke-width="2" stroke-linecap="round" stroke-linejoin="round"></path>
<defs>
<filter id="filter0_d" x="930" y="91" width="206" height="178" filterUnits="userSpaceOnUse" color-interpolation-filters="sRGB">
<feFlood flood-opacity="0" result="BackgroundImageFix"></feFlood>
<feColorMatrix in="SourceAlpha" type="matrix" values="0 0 0 0 0 0 0 0 0 0 0 0 0 0 0 0 0 0 127 0"></feColorMatrix>
<feOffset></feOffset>
<feGaussianBlur stdDeviation="5"></feGaussianBlur>
<feColorMatrix type="matrix" values="0 0 0 0 0 0 0 0 0 0 0 0 0 0 0 0 0 0 0.25 0"></feColorMatrix>
<feBlend mode="normal" in2="BackgroundImageFix" result="effect1_dropShadow"></feBlend>
<feBlend mode="normal" in="SourceGraphic" in2="effect1_dropShadow" result="shape"></feBlend>
</filter>
<filter id="filter1_d" x="466" y="91" width="206" height="178" filterUnits="userSpaceOnUse" color-interpolation-filters="sRGB">
<feFlood flood-opacity="0" result="BackgroundImageFix"></feFlood>
<feColorMatrix in="SourceAlpha" type="matrix" values="0 0 0 0 0 0 0 0 0 0 0 0 0 0 0 0 0 0 127 0"></feColorMatrix>
<feOffset></feOffset>
<feGaussianBlur stdDeviation="5"></feGaussianBlur>
<feColorMatrix type="matrix" values="0 0 0 0 0 0 0 0 0 0 0 0 0 0 0 0 0 0 0.25 0"></feColorMatrix>
<feBlend mode="normal" in2="BackgroundImageFix" result="effect1_dropShadow"></feBlend>
<feBlend mode="normal" in="SourceGraphic" in2="effect1_dropShadow" result="shape"></feBlend>
</filter>
<filter id="filter2_d" x="0" y="91" width="206" height="178" filterUnits="userSpaceOnUse" color-interpolation-filters="sRGB">
<feFlood flood-opacity="0" result="BackgroundImageFix"></feFlood>
<feColorMatrix in="SourceAlpha" type="matrix" values="0 0 0 0 0 0 0 0 0 0 0 0 0 0 0 0 0 0 127 0"></feColorMatrix>
<feOffset></feOffset>
<feGaussianBlur stdDeviation="5"></feGaussianBlur>
<feColorMatrix type="matrix" values="0 0 0 0 0 0 0 0 0 0 0 0 0 0 0 0 0 0 0.25 0"></feColorMatrix>
<feBlend mode="normal" in2="BackgroundImageFix" result="effect1_dropShadow"></feBlend>
<feBlend mode="normal" in="SourceGraphic" in2="effect1_dropShadow" result="shape"></feBlend>
</filter>
<filter id="filter3_d" x="0" y="343" width="206" height="198" filterUnits="userSpaceOnUse" color-interpolation-filters="sRGB">
<feFlood flood-opacity="0" result="BackgroundImageFix"></feFlood>
<feColorMatrix in="SourceAlpha" type="matrix" values="0 0 0 0 0 0 0 0 0 0 0 0 0 0 0 0 0 0 127 0"></feColorMatrix>
<feOffset></feOffset>
<feGaussianBlur stdDeviation="5"></feGaussianBlur>
<feColorMatrix type="matrix" values="0 0 0 0 0 0 0 0 0 0 0 0 0 0 0 0 0 0 0.25 0"></feColorMatrix>
<feBlend mode="normal" in2="BackgroundImageFix" result="effect1_dropShadow"></feBlend>
<feBlend mode="normal" in="SourceGraphic" in2="effect1_dropShadow" result="shape"></feBlend>
</filter>
<filter id="filter4_d" x="698" y="0" width="206" height="178" filterUnits="userSpaceOnUse" color-interpolation-filters="sRGB">
<feFlood flood-opacity="0" result="BackgroundImageFix"></feFlood>
<feColorMatrix in="SourceAlpha" type="matrix" values="0 0 0 0 0 0 0 0 0 0 0 0 0 0 0 0 0 0 127 0"></feColorMatrix>
<feOffset></feOffset>
<feGaussianBlur stdDeviation="5"></feGaussianBlur>
<feColorMatrix type="matrix" values="0 0 0 0 0 0 0 0 0 0 0 0 0 0 0 0 0 0 0.25 0"></feColorMatrix>
<feBlend mode="normal" in2="BackgroundImageFix" result="effect1_dropShadow"></feBlend>
<feBlend mode="normal" in="SourceGraphic" in2="effect1_dropShadow" result="shape"></feBlend>
</filter>
<filter id="filter5_d" x="234" y="0" width="206" height="178" filterUnits="userSpaceOnUse" color-interpolation-filters="sRGB">
<feFlood flood-opacity="0" result="BackgroundImageFix"></feFlood>
<feColorMatrix in="SourceAlpha" type="matrix" values="0 0 0 0 0 0 0 0 0 0 0 0 0 0 0 0 0 0 127 0"></feColorMatrix>
<feOffset></feOffset>
<feGaussianBlur stdDeviation="5"></feGaussianBlur>
<feColorMatrix type="matrix" values="0 0 0 0 0 0 0 0 0 0 0 0 0 0 0 0 0 0 0.25 0"></feColorMatrix>
<feBlend mode="normal" in2="BackgroundImageFix" result="effect1_dropShadow"></feBlend>
<feBlend mode="normal" in="SourceGraphic" in2="effect1_dropShadow" result="shape"></feBlend>
</filter>
<filter id="filter6_d" x="372" y="294" width="206" height="178" filterUnits="userSpaceOnUse" color-interpolation-filters="sRGB">
<feFlood flood-opacity="0" result="BackgroundImageFix"></feFlood>
<feColorMatrix in="SourceAlpha" type="matrix" values="0 0 0 0 0 0 0 0 0 0 0 0 0 0 0 0 0 0 127 0"></feColorMatrix>
<feOffset></feOffset>
<feGaussianBlur stdDeviation="5"></feGaussianBlur>
<feColorMatrix type="matrix" values="0 0 0 0 0 0 0 0 0 0 0 0 0 0 0 0 0 0 0.25 0"></feColorMatrix>
<feBlend mode="normal" in2="BackgroundImageFix" result="effect1_dropShadow"></feBlend>
<feBlend mode="normal" in="SourceGraphic" in2="effect1_dropShadow" result="shape"></feBlend>
</filter>
<filter id="filter7_d" x="698" y="294" width="206" height="178" filterUnits="userSpaceOnUse" color-interpolation-filters="sRGB">
<feFlood flood-opacity="0" result="BackgroundImageFix"></feFlood>
<feColorMatrix in="SourceAlpha" type="matrix" values="0 0 0 0 0 0 0 0 0 0 0 0 0 0 0 0 0 0 127 0"></feColorMatrix>
<feOffset></feOffset>
<feGaussianBlur stdDeviation="5"></feGaussianBlur>
<feColorMatrix type="matrix" values="0 0 0 0 0 0 0 0 0 0 0 0 0 0 0 0 0 0 0.25 0"></feColorMatrix>
<feBlend mode="normal" in2="BackgroundImageFix" result="effect1_dropShadow"></feBlend>
<feBlend mode="normal" in="SourceGraphic" in2="effect1_dropShadow" result="shape"></feBlend>
</filter>
</defs>
</svg>