<svg xmlns="http://www.w3.org/2000/svg" width="48" height="48" viewBox="0 0 48 48">
  <g id="Group_13290" data-name="Group 13290" transform="translate(-1375 -2116)">
    <g id="Group_12899" data-name="Group 12899" transform="translate(801 1220)">
      <rect id="Rectangle_1609" data-name="Rectangle 1609" width="48" height="48" rx="12" transform="translate(574 896)" fill="#c9d9ea" opacity="0.36"/>
      <rect id="Rectangle_1608" data-name="Rectangle 1608" width="38" height="38" rx="8" transform="translate(579 901)" fill="#20c5ba"/>
    </g>
  </g>
  <g id="users_2_" data-name="users (2)" transform="translate(12 12)">
    <path id="Path_131106" data-name="Path 131106" d="M17,21V19a4,4,0,0,0-4-4H5a4,4,0,0,0-4,4v2" fill="none" stroke="#fafafa" stroke-linecap="round" stroke-linejoin="round" stroke-width="2"/>
    <circle id="Ellipse_1205" data-name="Ellipse 1205" cx="4" cy="4" r="4" transform="translate(5 3)" fill="none" stroke="#fafafa" stroke-linecap="round" stroke-linejoin="round" stroke-width="2"/>
    <path id="Path_131107" data-name="Path 131107" d="M23,21V19a4,4,0,0,0-3-3.87" fill="none" stroke="#fafafa" stroke-linecap="round" stroke-linejoin="round" stroke-width="2"/>
    <path id="Path_131108" data-name="Path 131108" d="M16,3.13a4,4,0,0,1,0,7.75" fill="none" stroke="#fafafa" stroke-linecap="round" stroke-linejoin="round" stroke-width="2"/>
  </g>
</svg>
