<svg xmlns="http://www.w3.org/2000/svg" width="56" height="52" viewBox="0 0 56 52">
  <g id="Group_12619" data-name="Group 12619" transform="translate(-1380.73 -4129)">
    <g id="XMLID_491_" transform="translate(1380.983 4108.887)">
      <g id="XMLID_1832_" transform="translate(1.094 31.6)">
        <path id="XMLID_137_" d="M58.653,164.6h-43c-2.9,0-6-2.1-6-5v-28a6.623,6.623,0,0,1,6-6h43c2.9,0,5,3.1,5,6v28A4.834,4.834,0,0,1,58.653,164.6Z" transform="translate(-10 -126.083)" fill="#7ce8dd"/>
      </g>
      <g id="XMLID_1835_" transform="translate(23.852 50.8)">
        <path id="Path_130405" data-name="Path 130405" d="M226.021,301.98v2c0,2.295-1.705,5-4,5s-4-2.705-4-5v-2Z" transform="translate(-218.127 -301.667)" fill="#c3d3dd"/>
      </g>
      <g id="XMLID_1836_" transform="translate(1.109 31.6)">
        <path id="XMLID_136_" d="M20.78,145.6h33c5.778,0,10-5.222,10-11v-4c-.284-2.631-2.294-5-5-5h-43a6.623,6.623,0,0,0-6,6v3A11.4,11.4,0,0,0,20.78,145.6Z" transform="translate(-10.143 -126.083)" fill="#fafafa"/>
      </g>
      <g id="XMLID_1721_" transform="translate(14.434 21.094)">
        <path id="Path_130406" data-name="Path 130406" d="M159.313,40.02h-27v-5a4.834,4.834,0,0,1,5-5h17a4.834,4.834,0,0,1,5,5Z" transform="translate(-132 -30)" fill="#fff"/>
      </g>
      <g id="XMLID_1756_" transform="translate(14.434 21.094)">
        <path id="XMLID_4_" d="M154.313,30.02h-17a4.834,4.834,0,0,0-5,5h27A4.834,4.834,0,0,0,154.313,30.02Z" transform="translate(-132 -30)" fill="#7ce8dd"/>
      </g>
      <g id="XMLID_1722_" transform="translate(23.852 45.989)">
        <path id="XMLID_120_" d="M222.021,269.791c-2.295,0-4-2.705-4-5v-6c0-.771,1.229-1,2-1h5c.771,0,1,.229,1,1v6C226.021,267.085,224.316,269.791,222.021,269.791Z" transform="translate(-218.127 -257.666)" fill="#fafafa"/>
      </g>
      <g id="XMLID_1833_" transform="translate(23.852 45.989)">
        <path id="Path_130407" data-name="Path 130407" d="M218.021,262.791v-4c0-.771,1.229-1,2-1h5c.771,0,1,.229,1,1v4Z" transform="translate(-218.127 -257.667)" fill="#f5f7fa"/>
      </g>
      <g id="XMLID_138_" transform="translate(0 20)">
        <path id="XMLID_141_" d="M49.747,30.113h-7v-4a5.78,5.78,0,0,0-6-6h-17a5.78,5.78,0,0,0-6,6v4h-7a7.532,7.532,0,0,0-7,7v28a7.532,7.532,0,0,0,7,7h43c3.5,0,6-3.5,6-7v-28C55.747,33.616,53.244,30.113,49.747,30.113Zm-30-8h17a4.1,4.1,0,0,1,4,3h-25A4.1,4.1,0,0,1,19.747,22.113Zm-18,15c0-2.291,2.709-4,5-4h16c.6,0,1-1.4,1-2a.941.941,0,0,0-1-1h-7v-3h25v3h-18a.941.941,0,0,0-1,1,6.023,6.023,0,0,0,1,2h27a3.9,3.9,0,0,1,4,4v3c0,5.169-3.831,10-9,10h-11v-3c0-1.373-1.627-2-3-2h-5c-1.373,0-3,.627-3,2v3h-11a10.491,10.491,0,0,1-10-10Zm23,15h6v1a3,3,0,0,1-6,0Zm0-2v-3c0-.167.833,0,1,0h5c.167,0,0-.167,0,0v3Zm29,15a3.9,3.9,0,0,1-4,4h-43c-2.291,0-5-1.709-5-4v-18a12.945,12.945,0,0,0,10,5h11v1c0,2.894,2.106,6,5,6a6.631,6.631,0,0,0,6-6v-1h11a11.052,11.052,0,0,0,9-5Z" transform="translate(0 -20)" fill="#0f807e"/>
      </g>
    </g>
  </g>
</svg>
