<svg xmlns="http://www.w3.org/2000/svg" width="76.443" height="61.249" viewBox="0 0 76.443 61.249">
  <g id="Group_13112" data-name="Group 13112" transform="translate(513.817 -392.998)">
    <g id="Group_12710" data-name="Group 12710" transform="translate(-477.837 393.998)">
      <g id="Group_12589" data-name="Group 12589">
        <path id="Path_86873" data-name="Path 86873" d="M-460.018,432.823a18.644,18.644,0,0,0,5.564-8.29c5.388,0,5.747-10.482,1.436-10.482,0,0,.209-1.434.286-3.644m-7.287,22.416a13.982,13.982,0,0,1-9.161,3.361c-8.909,0-13.53-7.765-14.728-11.646-5.388,0-5.747-10.482-1.437-10.482,0,0-.209-1.434-.286-3.644m25.612,22.412s1.249,4.28,3.454,5.734m-25.229,0c2.205-1.452,3.454-5.734,3.454-5.734m-3.454,5.734c9.381,7.6,14.891,7.866,25.228,0" transform="translate(488.909 -391.773)" fill="none" stroke="#00e8dd" stroke-linecap="round" stroke-linejoin="round" stroke-width="2"/>
        <path id="Path_86874" data-name="Path 86874" d="M-473.258,413.786c11.026-3.1,14.146-1.891,17.042-8.434-.046.1.612,8.431,6.842,8.431,0,0,0-19.786-19.731-19.786s-19.732,20.83-19.732,20.83c7.028-.908,11.172-3.646,15.578-8.331Z" transform="translate(488.836 -393.998)" fill="none" stroke="#00e8dd" stroke-linecap="round" stroke-linejoin="round" stroke-width="2"/>
      </g>
      <path id="Path_122924" data-name="Path 122924" d="M-479.929,417.641s.092-2.756,2.471-2.756,2.591,2.756,2.591,2.756" transform="translate(490.043 -391.166)" fill="none" stroke="#00e8dd" stroke-linecap="round" stroke-linejoin="round" stroke-width="2"/>
      <path id="Path_122925" data-name="Path 122925" d="M-466.961,417.641s.092-2.756,2.471-2.756,2.591,2.756,2.591,2.756" transform="translate(491.802 -391.166)" fill="none" stroke="#00e8dd" stroke-linecap="round" stroke-linejoin="round" stroke-width="2"/>
    </g>
    <g id="Group_13111" data-name="Group 13111" transform="translate(-512.817 402.063)">
      <path id="Path_131011" data-name="Path 131011" d="M-490.231,451.312l4.979-1.267s.76-1.187.339-1.6-2.785-3.46-2.785-3.46l1.1-2.45,7.425-14.939-2.532-8.946s-5.486-5.742-6.917-5.742-23.975,2.87-23.975,2.87l-2.028,8.1,4.137,9.114,4.135,7.429,1.1,3.884s-1.857,2.958-1.942,3.208-.843,4.22-.421,4.725,8.35,2.791,10.214,1.774A64.708,64.708,0,0,1-490.231,451.312Z" transform="translate(517.095 -403.432)" fill="#0b3a42"/>
      <g id="Group_7243" data-name="Group 7243">
        <g id="Group_7204" data-name="Group 7204">
          <path id="Path_86700" data-name="Path 86700" d="M-516.7,455.136l.978-30.313s-1.045-19.86,19.858-19.86S-476,424.823-476,424.823v29.266c-6.117-2.617-9.264-4.516-10.452-8.361,2.926-2.982,4.175-4.838,4.611-8.362,4.869-.4,5.066-1.821,3.936-8.276l-1.231-2.181-.433-3.034a96.852,96.852,0,0,1-7.928-7.418c-6.846,4.089-10.906,4.618-18.815,1.045a12.316,12.316,0,0,1-6.272,6.466l.977,2.941c-4.572-1.025-4.3,13.588,1.97,10.452-.239,3.21,1.23,5.038,5.52,8.361l-3.174,3.134Z" transform="translate(516.696 -404.963)" fill="#f2a90e" stroke="#f2a90e" stroke-linecap="round" stroke-linejoin="round" stroke-width="2"/>
          <path id="Path_86701" data-name="Path 86701" d="M-487.546,442.108a17.772,17.772,0,0,0,5.309-7.9,4.912,4.912,0,0,0,.747-.075c4.406-.458,4.623-9.921.624-9.921,0,0,.2-1.368.273-3.475m-6.953,21.37a13.325,13.325,0,0,1-8.734,3.2c-8.5,0-12.9-7.4-14.044-11.106-5.137,0-5.481-9.994-1.371-9.994,0,0-.2-1.368-.273-3.475m24.421,21.374s1.193,4.082,3.293,5.467m-24.055,0c2.1-1.385,3.293-5.467,3.293-5.467m-3.293,5.467c8.946,7.249,14.194,7.5,24.055,0" transform="translate(517.118 -401.922)" fill="#0b3a42" stroke="#00e8dd" stroke-linecap="round" stroke-linejoin="round" stroke-width="2"/>
          <path id="Path_86751" data-name="Path 86751" d="M-496.313,426.343s.091-2.71,2.43-2.71,2.549,2.711,2.549,2.711" transform="translate(520.626 -401.363)" fill="none" stroke="#00e8dd" stroke-linecap="round" stroke-linejoin="round" stroke-width="2"/>
          <path id="Path_86752" data-name="Path 86752" d="M-506.271,426.343s.091-2.71,2.43-2.71,2.549,2.711,2.549,2.711" transform="translate(518.706 -401.363)" fill="none" stroke="#00e8dd" stroke-linecap="round" stroke-linejoin="round" stroke-width="2"/>
        </g>
      </g>
    </g>
  </g>
</svg>
