<svg xmlns="http://www.w3.org/2000/svg" width="60.806" height="61.25" viewBox="0 0 60.806 61.25">
  <g id="Group_13357" data-name="Group 13357" transform="translate(-279.001 -261.514)">
    <path id="Path_131111" data-name="Path 131111" d="M352.039,288.87a29.582,29.582,0,0,0-11.9-18.685c-5.856-4.361-10.3-5.816-17.736-5.952,0,4.785.009,6.9,0,11.684,0,.417.029,3.379,0,3.795,3.691.187,4.7.635,7.627,2.864a14.368,14.368,0,0,1,5.525,8.491,13.687,13.687,0,0,1-2.271,11.176c-.116.168.777-.193.7,0,2.064,1.408,3.321,2.632,5.392,4.031,2.39,1.615,4.662,3.985,7.059,5.591a25.607,25.607,0,0,0,3.9-6.751A27.779,27.779,0,0,0,352.039,288.87Z" transform="translate(-12.75 -1.649)" fill="#f2a90e"/>
    <path id="Path_131112" data-name="Path 131112" d="M333.255,309.1c-2.147-1.533-4.3-3.06-6.438-4.6-1.855-1.335-3.7-2.684-5.549-4.027-.332.162-.474.5-.7.76-3.991,4.474-8.965,6.154-14.717,4.562a13.422,13.422,0,0,1-10.188-11.347,14.081,14.081,0,0,1,12.053-16.328c.623-.085,1.243-.11,1.866-.135.025-.4.072-.794.073-1.191q.011-6.846.01-13.69c.015-.407-.089-.616-.589-.582a41.958,41.958,0,0,0-4.318.441,29.344,29.344,0,0,0-16.636,8.859,28.279,28.279,0,0,0-4.922,7.008,29.12,29.12,0,0,0-2.4,20,29.607,29.607,0,0,0,29.67,22.93,26.6,26.6,0,0,0,4.053-.4,29.621,29.621,0,0,0,18.766-11.306C333.588,309.668,333.655,309.4,333.255,309.1Z" fill="none" stroke="#00e8dd" stroke-miterlimit="10" stroke-width="2"/>
  </g>
</svg>
