<svg xmlns="http://www.w3.org/2000/svg" width="49.52" height="52.749" viewBox="0 0 49.52 52.749">
  <g id="Group_12623" data-name="Group 12623" transform="translate(-7971.405 -16814.254)">
    <path id="Path_130410" data-name="Path 130410" d="M7995.935,16853.621l-21,18,2,2h39l2-2Z" transform="translate(-0.27 -7.368)" fill="#fafafa"/>
    <path id="Path_130409" data-name="Path 130409" d="M7983.837,16831.41l-10,8,17,14,5-4,5,4,18-14-11-8Z" transform="translate(-0.172 -3.156)" fill="#7ce8dd"/>
    <g id="Group_12622" data-name="Group 12622" transform="translate(7973 16814)">
      <g id="mail" transform="translate(0 3.55)">
        <path id="Path_130415" data-name="Path 130415" d="M1218.043,290.973v25a5.153,5.153,0,0,1-5,5h-37c-2.519-.008-3.993-2.21-4-5v-25" transform="translate(-1171.878 -272.77)" fill="none" stroke="#0f7f7e" stroke-linecap="round" stroke-linejoin="round" stroke-width="2.5"/>
        <path id="Path_130416" data-name="Path 130416" d="M1172.043,292.2l23-19,23,19" transform="translate(-1171.878 -273)" fill="none" stroke="#0f7f7e" stroke-linecap="round" stroke-linejoin="round" stroke-width="2.5"/>
      </g>
      <g id="mail-2" data-name="mail" transform="translate(1.136 32.589)">
        <path id="Path_130416-2" data-name="Path 130416" d="M1173.029,318.844l22-17,22,17" transform="translate(-1173 -301.679)" fill="none" stroke="#0f7f7e" stroke-linecap="round" stroke-linejoin="round" stroke-width="2.5"/>
      </g>
      <g id="mail-3" data-name="mail" transform="translate(0.123 21.908)">
        <path id="Path_130416-3" data-name="Path 130416" d="M1190.042,304.977l-18-14" transform="translate(-1172 -291.13)" fill="none" stroke="#0f7f7e" stroke-linecap="round" stroke-linejoin="round" stroke-width="2.5"/>
        <path id="Path_130416-4" data-name="Path 130416" d="M1216.7,291.969l-17,13" transform="translate(-1171.655 -291.123)" fill="none" stroke="#0f7f7e" stroke-linecap="round" stroke-linejoin="round" stroke-width="2.5"/>
      </g>
      <g id="Ellipse_1125" data-name="Ellipse 1125" transform="translate(9.665 0.254)" fill="#fff" stroke="#0f7f7e" stroke-width="2.5">
        <circle cx="13" cy="13" r="13" stroke="none"/>
        <circle cx="13" cy="13" r="11.75" fill="none"/>
      </g>
      <g id="Group_12621" data-name="Group 12621" transform="translate(19.391 5.905)">
        <line id="Line_902" data-name="Line 902" y2="15" transform="translate(3.774 -0.15)" fill="none" stroke="#0f7f7e" stroke-linecap="round" stroke-linejoin="round" stroke-width="2.5"/>
        <path id="Path_130408" data-name="Path 130408" d="M1197.8,278.141h-5a1.86,1.86,0,0,0-2,2c0,1.292.834,3,2,3h3a2,2,0,0,1,0,4h-5" transform="translate(-1191.029 -275.292)" fill="none" stroke="#0f7f7e" stroke-linecap="round" stroke-linejoin="round" stroke-width="2.5"/>
      </g>
    </g>
  </g>
</svg>
