<svg xmlns="http://www.w3.org/2000/svg" width="14.581" height="14.581" viewBox="0 0 14.581 14.581">
  <path id="Path_924" data-name="Path 924" d="M9.205,19.79H6.087V10.783H9.205ZM7.629,9.4A1.594,1.594,0,1,1,9.222,7.8,1.612,1.612,0,0,1,7.629,9.4ZM19.616,19.79H17V15.425c0-1.057-.139-2.408-1.576-2.408-1.472,0-1.715,1.143-1.715,2.338V19.79h-2.6V10.783h2.425V12H13.6a2.845,2.845,0,0,1,2.65-1.23c2.858,0,3.36,1.646,3.36,4.088Z" transform="translate(-5.535 -5.71)" fill="none" stroke="#9db0cb" stroke-width="1"/>
</svg>
