<svg xmlns="http://www.w3.org/2000/svg" width="61.922" height="62.686" viewBox="0 0 61.922 62.686">
  <g id="Group_7238" data-name="Group 7238" transform="translate(0.5 0.823)">
    <path id="Path_86735" data-name="Path 86735" d="M38.537,30.655a16.439,16.439,0,0,0,4.909-7.3c4.751,0,5.067-9.242,1.267-9.242,0,0,.184-1.265.252-3.213h0M38.537,30.655a12.327,12.327,0,0,1-8.076,2.964c-7.855,0-11.93-6.846-12.985-10.269-4.751,0-5.067-9.242-1.267-9.242,0,0-.184-1.265-.252-3.213,0,0,.488,3.038.252,0M38.537,30.655s1.1,3.774,3.045,5.054m-22.243,0c1.944-1.281,3.045-5.054,3.045-5.054M19.34,35.71l-4.775,2.6m4.775-2.6,11.121,5.112M41.582,35.71,58.37,44.834a4.726,4.726,0,0,1,2.052,3.958,4.455,4.455,0,0,1-4.259,4.629H34.327M41.582,35.71l4.775,2.6-12.03,8.351-1.084-1.636m8.34-9.31L30.461,40.821M14.565,38.3l12.03,8.351,1.084-1.636M14.565,38.3,12.1,39.646m18.363,1.176-2.782,4.2m2.782-4.2,2.782,4.2m-6.647,8.4h7.732m-7.732,0,1.933-7.732m-1.933,7.732H18.863m15.464,0-1.933-7.732m-3.866,0,.773.58a1.933,1.933,0,0,0,2.32,0l.773-.58m-3.866,0-.849-.67m4.714.67.849-.67M12.1,39.646,2.552,44.834A4.726,4.726,0,0,0,.5,48.793a4.455,4.455,0,0,0,4.259,4.629h14.1M12.1,39.646l6.765,13.775M48.824,39.646,42.059,53.421" transform="translate(0 7.103)" fill="none" stroke="#00e8dd" stroke-linecap="round" stroke-linejoin="round" stroke-width="2"/>
    <path id="Path_86736" data-name="Path 86736" d="M20.849,19.289C31.606,16.273,32.9,12.67,35.682,6.433l.025.136c1.221,6.769,1.913,10.607,6.9,12.719C42.6,19.289,45.571.5,25.793.5S7,19.289,7,19.289c6.693-.86,9.649-2.474,13.844-6.922Z" transform="translate(5.25 -0.323)" fill="none" stroke="#fcb00f" stroke-linecap="round" stroke-linejoin="round" stroke-width="2"/>
    <path id="Path_86827" data-name="Path 86827" d="M22.863,18.9s.08-2.4,2.156-2.4,2.261,2.4,2.261,2.4" transform="translate(-0.408 5.17)" fill="none" stroke="#fcb00f" stroke-linecap="round" stroke-linejoin="round" stroke-width="2"/>
    <path id="Path_86828" data-name="Path 86828" d="M22.863,18.9s.08-2.4,2.156-2.4,2.261,2.4,2.261,2.4" transform="translate(11.442 5.17)" fill="none" stroke="#fcb00f" stroke-linecap="round" stroke-linejoin="round" stroke-width="2"/>
  </g>
</svg>
