<svg xmlns="http://www.w3.org/2000/svg" width="20.39" height="15.496" viewBox="0 0 20.39 15.496">
  <g id="quotation" transform="translate(0.341 0.334)">
    <g id="Group_2328" data-name="Group 2328" transform="translate(11.076 0.001)">
      <g id="Group_2327" data-name="Group 2327" transform="translate(0 0)">
        <path id="Path_86378" data-name="Path 86378" d="M3.855,69.86c-.174-1.318-1.339-2.512-3.471-3.552L0,66.121l1.574-2.906.355.18c4.508,2.285,6.794,5.515,6.794,9.6a5.273,5.273,0,0,1-1.33,3.618,4.2,4.2,0,0,1-3.227,1.515A3.766,3.766,0,0,1,1.342,76.94a4.179,4.179,0,0,1,.011-5.724A4.454,4.454,0,0,1,3.855,69.86ZM1.934,76.374a2.937,2.937,0,0,0,2.232.933,3.366,3.366,0,0,0,2.616-1.24A4.42,4.42,0,0,0,7.9,72.994a8.487,8.487,0,0,0-1.567-5.023,12.566,12.566,0,0,0-4.425-3.662l-.788,1.456C3.5,67.007,4.7,68.5,4.7,70.209v.366l-.363.041a3.675,3.675,0,0,0-2.38,1.159,3.361,3.361,0,0,0-.019,4.6Z" transform="translate(0 -63.215)" fill="#697d9a" stroke="#697d9a" stroke-width="0.5"/>
      </g>
    </g>
    <g id="Group_2330" data-name="Group 2330" transform="translate(0 0)">
      <g id="Group_2329" data-name="Group 2329" transform="translate(0 0)">
        <path id="Path_86379" data-name="Path 86379" d="M290.361,69.828c-.172-1.319-1.328-2.513-3.442-3.553l-.378-.186,1.535-2.908.359.181c4.529,2.285,6.825,5.515,6.825,9.6a5.238,5.238,0,0,1-1.347,3.619,4.241,4.241,0,0,1-3.241,1.513,3.717,3.717,0,0,1-2.811-1.188,4.2,4.2,0,0,1,.029-5.722A4.44,4.44,0,0,1,290.361,69.828Zm-1.9,6.516a2.89,2.89,0,0,0,2.215.931,3.41,3.41,0,0,0,2.632-1.242,4.385,4.385,0,0,0,1.136-3.071,8.459,8.459,0,0,0-1.574-5.022,12.611,12.611,0,0,0-4.444-3.661l-.767,1.453c2.354,1.243,3.547,2.737,3.547,4.445v.365l-.362.042a3.649,3.649,0,0,0-2.351,1.159,3.381,3.381,0,0,0-.032,4.6Z" transform="translate(-286.541 -63.181)" fill="#697d9a" stroke="#697d9a" stroke-width="0.5"/>
      </g>
    </g>
  </g>
</svg>
