<svg xmlns="http://www.w3.org/2000/svg" width="20.39" height="15.496" viewBox="0 0 20.39 15.496">
  <g id="quotation" transform="translate(0.25 0.25)">
    <g id="Group_2328" data-name="Group 2328" transform="translate(0 0)">
      <g id="Group_2327" data-name="Group 2327">
        <path id="Path_86378" data-name="Path 86378" d="M4.868,71.482c.174,1.318,1.339,2.512,3.471,3.552l.384.187L7.149,78.126l-.355-.18C2.286,75.661,0,72.431,0,68.347A5.273,5.273,0,0,1,1.33,64.73a4.2,4.2,0,0,1,3.227-1.515A3.766,3.766,0,0,1,7.381,64.4a4.179,4.179,0,0,1-.011,5.724A4.454,4.454,0,0,1,4.868,71.482Zm1.921-6.515a2.937,2.937,0,0,0-2.232-.933,3.366,3.366,0,0,0-2.616,1.24A4.42,4.42,0,0,0,.819,68.347,8.487,8.487,0,0,0,2.385,73.37a12.567,12.567,0,0,0,4.425,3.662L7.6,75.577c-2.371-1.243-3.573-2.736-3.573-4.444v-.366l.363-.041a3.675,3.675,0,0,0,2.38-1.159,3.361,3.361,0,0,0,.019-4.6Z" transform="translate(0 -63.215)" fill="#697d9a" stroke="#697d9a" stroke-width="0.5"/>
      </g>
    </g>
    <g id="Group_2330" data-name="Group 2330" transform="translate(11.08 0)">
      <g id="Group_2329" data-name="Group 2329">
        <path id="Path_86379" data-name="Path 86379" d="M291.439,71.446c.172,1.319,1.328,2.513,3.442,3.553l.378.186-1.535,2.908-.359-.181c-4.529-2.285-6.825-5.515-6.825-9.6a5.238,5.238,0,0,1,1.347-3.619,4.241,4.241,0,0,1,3.241-1.513,3.717,3.717,0,0,1,2.811,1.188,4.2,4.2,0,0,1-.029,5.722A4.44,4.44,0,0,1,291.439,71.446Zm1.9-6.516A2.89,2.89,0,0,0,291.128,64a3.41,3.41,0,0,0-2.632,1.242,4.385,4.385,0,0,0-1.136,3.071,8.459,8.459,0,0,0,1.574,5.022A12.611,12.611,0,0,0,293.378,77l.767-1.453C291.791,74.3,290.6,72.806,290.6,71.1v-.365l.362-.042a3.649,3.649,0,0,0,2.351-1.159,3.381,3.381,0,0,0,.032-4.6Z" transform="translate(-286.541 -63.181)" fill="#697d9a" stroke="#697d9a" stroke-width="0.5"/>
      </g>
    </g>
  </g>
</svg>
