<svg xmlns="http://www.w3.org/2000/svg" width="18.796" height="15.084" viewBox="0 0 18.796 15.084">
  <path id="Path_925" data-name="Path 925" d="M21.4,11.642V12.1a9.837,9.837,0,0,1-9.99,9.837,10.019,10.019,0,0,1-5.376-1.545c.283.022.544.044.827.044a7.01,7.01,0,0,0,4.353-1.48,3.7,3.7,0,0,1-2.441-1.028,3.19,3.19,0,0,1-.845-1.366,3.322,3.322,0,0,0,.653.065,3.242,3.242,0,0,0,.936-.131,3.478,3.478,0,0,1-2.764-3.4v-.044a3.366,3.366,0,0,0,1.567.435A3.413,3.413,0,0,1,7.232,8.878a10.055,10.055,0,0,0,7.226,3.613,3.2,3.2,0,0,1-.087-.783,3.479,3.479,0,0,1,3.5-3.46,3.566,3.566,0,0,1,2.568,1.088,6.533,6.533,0,0,0,2.22-.849A3.543,3.543,0,0,1,21.117,10.4a6.953,6.953,0,0,0,2.024-.544A7.146,7.146,0,0,1,21.4,11.642Z" transform="translate(-5.767 -7.352)" fill="none" stroke="#9db0cb" stroke-width="1"/>
</svg>
